G04 #@! TF.FileFunction,Copper,L1,Top,Signal*
%FSLAX46Y46*%
G04 Gerber Fmt 4.6, Leading zero omitted, Abs format (unit mm)*
G04 Created by KiCad (PCBNEW 4.0.2+dfsg1-stable) date Sat 01 Jul 2017 08:29:19 PM EDT*
%MOMM*%
G01*
G04 APERTURE LIST*
%ADD10C,0.100000*%
%ADD11R,1.200000X1.200000*%
%ADD12C,1.200000*%
%ADD13R,1.300000X1.300000*%
%ADD14C,1.300000*%
%ADD15C,1.998980*%
%ADD16R,1.998980X1.998980*%
%ADD17R,1.727200X1.727200*%
%ADD18O,1.727200X1.727200*%
%ADD19R,2.500000X2.500000*%
%ADD20C,2.500000*%
%ADD21C,1.524000*%
%ADD22O,1.600000X1.600000*%
%ADD23O,1.501140X2.499360*%
%ADD24C,2.000000*%
%ADD25C,5.588000*%
%ADD26R,1.501140X1.501140*%
%ADD27C,0.600000*%
%ADD28C,0.500000*%
%ADD29C,0.250000*%
%ADD30C,0.254000*%
G04 APERTURE END LIST*
D10*
D11*
X165735000Y-115570000D03*
D12*
X165735000Y-118070000D03*
D13*
X172720000Y-113030000D03*
D14*
X172720000Y-118030000D03*
D13*
X167640000Y-102235000D03*
D14*
X172640000Y-102235000D03*
D13*
X180340000Y-105410000D03*
D14*
X177840000Y-105410000D03*
D15*
X70487540Y-111760000D03*
D16*
X70487540Y-101600000D03*
D15*
X95252540Y-111760000D03*
D16*
X95252540Y-101600000D03*
D15*
X120017540Y-111760000D03*
D16*
X120017540Y-101600000D03*
D15*
X144782540Y-111760000D03*
D16*
X144782540Y-101600000D03*
D17*
X190500000Y-81280000D03*
D18*
X190500000Y-78740000D03*
X193040000Y-81280000D03*
X193040000Y-78740000D03*
X195580000Y-81280000D03*
X195580000Y-78740000D03*
D19*
X181610000Y-81280000D03*
D20*
X176610000Y-81280000D03*
D12*
X177800000Y-116840000D03*
X179070000Y-115570000D03*
X177800000Y-114300000D03*
X87630000Y-88900000D03*
X86360000Y-87630000D03*
X85090000Y-88900000D03*
X112395000Y-88900000D03*
X111125000Y-87630000D03*
X109855000Y-88900000D03*
X137160000Y-88900000D03*
X135890000Y-87630000D03*
X134620000Y-88900000D03*
X161925000Y-88900000D03*
X160655000Y-87630000D03*
X159385000Y-88900000D03*
D15*
X74930000Y-95250000D03*
X74930000Y-105410000D03*
D21*
X73025000Y-118110000D03*
X70485000Y-115570000D03*
X75565000Y-115570000D03*
D15*
X81280000Y-92075000D03*
X81280000Y-102235000D03*
X67310000Y-85090000D03*
X77470000Y-85090000D03*
X86360000Y-93980000D03*
X86360000Y-104140000D03*
X67310000Y-80010000D03*
X77470000Y-80010000D03*
X99695000Y-95250000D03*
X99695000Y-105410000D03*
D21*
X97790000Y-118110000D03*
X95250000Y-115570000D03*
X100330000Y-115570000D03*
D15*
X106045000Y-92075000D03*
X106045000Y-102235000D03*
X92075000Y-85090000D03*
X102235000Y-85090000D03*
X111125000Y-93980000D03*
X111125000Y-104140000D03*
X92075000Y-80010000D03*
X102235000Y-80010000D03*
X124460000Y-95250000D03*
X124460000Y-105410000D03*
D21*
X122555000Y-118110000D03*
X120015000Y-115570000D03*
X125095000Y-115570000D03*
D15*
X130810000Y-92075000D03*
X130810000Y-102235000D03*
X116840000Y-85090000D03*
X127000000Y-85090000D03*
X135890000Y-93980000D03*
X135890000Y-104140000D03*
X116840000Y-80010000D03*
X127000000Y-80010000D03*
X149225000Y-95250000D03*
X149225000Y-105410000D03*
D21*
X147320000Y-118110000D03*
X144780000Y-115570000D03*
X149860000Y-115570000D03*
D15*
X155575000Y-92075000D03*
X155575000Y-102235000D03*
X141605000Y-85090000D03*
X151765000Y-85090000D03*
X160655000Y-93980000D03*
X160655000Y-104140000D03*
X141605000Y-80010000D03*
X151765000Y-80010000D03*
X168910000Y-115570000D03*
X168910000Y-105410000D03*
X177800000Y-97790000D03*
X167640000Y-97790000D03*
X177165000Y-91440000D03*
X167005000Y-91440000D03*
D22*
X80010000Y-109220000D03*
X80010000Y-111760000D03*
X80010000Y-114300000D03*
X80010000Y-116840000D03*
X87630000Y-116840000D03*
X87630000Y-114300000D03*
X87630000Y-111760000D03*
X87630000Y-109220000D03*
X80645000Y-80010000D03*
X80645000Y-82550000D03*
X88265000Y-82550000D03*
X88265000Y-80010000D03*
X104775000Y-109220000D03*
X104775000Y-111760000D03*
X104775000Y-114300000D03*
X104775000Y-116840000D03*
X112395000Y-116840000D03*
X112395000Y-114300000D03*
X112395000Y-111760000D03*
X112395000Y-109220000D03*
X105410000Y-80010000D03*
X105410000Y-82550000D03*
X113030000Y-82550000D03*
X113030000Y-80010000D03*
X129540000Y-109220000D03*
X129540000Y-111760000D03*
X129540000Y-114300000D03*
X129540000Y-116840000D03*
X137160000Y-116840000D03*
X137160000Y-114300000D03*
X137160000Y-111760000D03*
X137160000Y-109220000D03*
X130175000Y-80010000D03*
X130175000Y-82550000D03*
X137795000Y-82550000D03*
X137795000Y-80010000D03*
X154305000Y-109220000D03*
X154305000Y-111760000D03*
X154305000Y-114300000D03*
X154305000Y-116840000D03*
X161925000Y-116840000D03*
X161925000Y-114300000D03*
X161925000Y-111760000D03*
X161925000Y-109220000D03*
X154940000Y-80010000D03*
X154940000Y-82550000D03*
X162560000Y-82550000D03*
X162560000Y-80010000D03*
D23*
X190500000Y-114300000D03*
X187960000Y-114300000D03*
X193040000Y-114300000D03*
D15*
X67310000Y-90170000D03*
X77470000Y-90170000D03*
X92075000Y-90170000D03*
X102235000Y-90170000D03*
X116840000Y-90170000D03*
X127000000Y-90170000D03*
X141605000Y-90170000D03*
X151765000Y-90170000D03*
D24*
X66675000Y-115570000D03*
X91440000Y-115570000D03*
X116205000Y-115570000D03*
X140970000Y-115570000D03*
X89535000Y-104140000D03*
X163195000Y-104140000D03*
X171450000Y-80010000D03*
X114300000Y-104140000D03*
X139065000Y-104140000D03*
X167005000Y-80010000D03*
X176530000Y-100965000D03*
D25*
X64770000Y-74295000D03*
X64770000Y-123825000D03*
X203200000Y-74295000D03*
X203200000Y-123825000D03*
X143510000Y-96520000D03*
D26*
X184150000Y-92710000D03*
X196850000Y-92710000D03*
X184150000Y-110490000D03*
X196850000Y-110490000D03*
X196850000Y-101600000D03*
X184150000Y-101600000D03*
X190500000Y-92710000D03*
D27*
X181610000Y-105410000D03*
X190500000Y-84455000D03*
X164465000Y-88900000D03*
D28*
X181610000Y-105410000D02*
X181610000Y-81280000D01*
X180340000Y-105410000D02*
X181610000Y-105410000D01*
D29*
X70485000Y-115570000D02*
X66675000Y-115570000D01*
X90170000Y-114300000D02*
X90170000Y-106045000D01*
X87630000Y-114300000D02*
X90170000Y-114300000D01*
X90170000Y-102235000D02*
X90170000Y-88900000D01*
X91440000Y-103505000D02*
X90170000Y-102235000D01*
X91440000Y-104775000D02*
X91440000Y-103505000D01*
X90170000Y-106045000D02*
X91440000Y-104775000D01*
X111125000Y-76835000D02*
X90170000Y-76835000D01*
X111125000Y-81280000D02*
X111125000Y-76835000D01*
X112395000Y-82550000D02*
X111125000Y-81280000D01*
X90170000Y-76835000D02*
X90170000Y-82550000D01*
X73025000Y-118110000D02*
X75565000Y-118110000D01*
X76835000Y-116840000D02*
X80010000Y-116840000D01*
X75565000Y-118110000D02*
X76835000Y-116840000D01*
X135890000Y-76835000D02*
X114935000Y-76835000D01*
X137160000Y-82550000D02*
X135890000Y-80645000D01*
X135890000Y-80645000D02*
X135890000Y-76835000D01*
X114935000Y-82550000D02*
X113030000Y-82550000D01*
X114935000Y-76835000D02*
X114935000Y-82550000D01*
X160654994Y-76819503D02*
X139715497Y-76819503D01*
X139700000Y-82550000D02*
X137795000Y-82550000D01*
X139700000Y-82550000D02*
X139700000Y-76835000D01*
X139715497Y-76819503D02*
X139700000Y-76835000D01*
X160655005Y-80645000D02*
X162560000Y-82550000D01*
X160654994Y-76819503D02*
X160654994Y-76819503D01*
X160654994Y-76819503D02*
X160655005Y-80645000D01*
X88265000Y-82550000D02*
X90170000Y-82550000D01*
X90170000Y-88900000D02*
X90170000Y-88900000D01*
X90170000Y-82550000D02*
X90170000Y-88900000D01*
X90170000Y-88900000D02*
X87630000Y-88900000D01*
X113030000Y-82550000D02*
X112395000Y-82550000D01*
X137795000Y-82550000D02*
X137160000Y-82550000D01*
X190500000Y-87630000D02*
X190500000Y-87630000D01*
X177800000Y-116840000D02*
X177800000Y-120650000D01*
X172720000Y-118030000D02*
X169465000Y-118030000D01*
X193040000Y-120650000D02*
X193040000Y-114300000D01*
X169545000Y-120650000D02*
X177800000Y-120650000D01*
X177800000Y-120650000D02*
X193040000Y-120650000D01*
X169545000Y-118110000D02*
X169545000Y-120650000D01*
X169465000Y-118030000D02*
X169545000Y-118110000D01*
X165735000Y-118070000D02*
X172680000Y-118070000D01*
X172680000Y-118070000D02*
X172720000Y-118030000D01*
X79375000Y-116840000D02*
X80645000Y-116840000D01*
X80645000Y-116840000D02*
X87630000Y-114300000D01*
X70485000Y-115570000D02*
X73025000Y-118110000D01*
X70487540Y-111760000D02*
X70485000Y-113665000D01*
X70485000Y-113665000D02*
X70485000Y-115570000D01*
D28*
X190500000Y-81280000D02*
X190500000Y-84455000D01*
X190500000Y-84455000D02*
X190500000Y-87630000D01*
X190500000Y-87630000D02*
X199390000Y-87630000D01*
X199390000Y-87630000D02*
X199390000Y-93980000D01*
X199390000Y-93980000D02*
X199390000Y-114300000D01*
X199390000Y-114300000D02*
X193040000Y-114300000D01*
D29*
X177800000Y-97790000D02*
X177800000Y-99695000D01*
X177800000Y-99695000D02*
X176530000Y-100965000D01*
X172640000Y-102235000D02*
X175260000Y-102235000D01*
X177800000Y-110490000D02*
X177800000Y-114300000D01*
X175260000Y-107950000D02*
X177800000Y-110490000D01*
X175260000Y-102235000D02*
X175260000Y-107950000D01*
X172720000Y-97790000D02*
X172720000Y-97790000D01*
X177800000Y-114300000D02*
X187960000Y-114300000D01*
X172640000Y-102235000D02*
X172720000Y-97790000D01*
X177800000Y-97790000D02*
X172720000Y-97790000D01*
X167005000Y-80010000D02*
X167005000Y-80010000D01*
X113030000Y-76200000D02*
X135890000Y-76200000D01*
X135890000Y-76200000D02*
X137795000Y-76200000D01*
X137795000Y-76200000D02*
X137795000Y-80010000D01*
X113030000Y-76200000D02*
X113030000Y-80010000D01*
X92075000Y-76200000D02*
X88265000Y-76200000D01*
X113030000Y-76200000D02*
X92075000Y-76200000D01*
X88265000Y-76200000D02*
X88265000Y-80010000D01*
X162560000Y-80010000D02*
X167005000Y-80010000D01*
X168910000Y-105410000D02*
X165735000Y-105410000D01*
X165735000Y-115570000D02*
X165735000Y-105410000D01*
X165735000Y-105410000D02*
X165735000Y-91440000D01*
X165735000Y-91440000D02*
X167005000Y-91440000D01*
X149860000Y-76200000D02*
X167005000Y-76200000D01*
X137795000Y-76200000D02*
X149860000Y-76200000D01*
X167005000Y-76200000D02*
X167005000Y-80010000D01*
X167005000Y-80010000D02*
X167005000Y-91440000D01*
X168910000Y-115570000D02*
X168910000Y-113030000D01*
X168910000Y-113030000D02*
X172720000Y-113030000D01*
X172720000Y-113030000D02*
X172720000Y-115570000D01*
X172720000Y-115570000D02*
X179070000Y-115570000D01*
X149225000Y-100330000D02*
X149225000Y-95250000D01*
X141605000Y-90170000D02*
X149225000Y-90170000D01*
X149225000Y-90170000D02*
X149225000Y-95250000D01*
X176610000Y-81280000D02*
X174625000Y-81280000D01*
X174625000Y-81280000D02*
X171450000Y-80010000D01*
X167640000Y-97790000D02*
X167640000Y-98425000D01*
X177165000Y-95250000D02*
X177165000Y-91440000D01*
X167640000Y-95250000D02*
X177165000Y-95250000D01*
X167640000Y-98425000D02*
X167640000Y-95250000D01*
X167640000Y-102235000D02*
X167640000Y-97790000D01*
D28*
X176610000Y-76200000D02*
X198120000Y-76200000D01*
X195580000Y-81280000D02*
X198120000Y-81280000D01*
X198120000Y-81280000D02*
X198120000Y-76200000D01*
X176610000Y-76200000D02*
X176610000Y-81280000D01*
D29*
X177165000Y-91440000D02*
X176530000Y-87630000D01*
X176530000Y-87630000D02*
X176610000Y-81280000D01*
X149225000Y-100330000D02*
X161925000Y-109220000D01*
X149225000Y-100330000D02*
X149225000Y-100330000D01*
X141605000Y-85090000D02*
X141605000Y-90170000D01*
X141605000Y-80010000D02*
X141605000Y-85090000D01*
X74930000Y-105410000D02*
X70485000Y-105410000D01*
X70485000Y-105410000D02*
X70487540Y-101600000D01*
X114935000Y-114300000D02*
X114935000Y-106045000D01*
X112395000Y-114300000D02*
X114935000Y-114300000D01*
X114935000Y-88900000D02*
X112395000Y-88900000D01*
X114935000Y-102235000D02*
X114935000Y-88900000D01*
X116205000Y-103505000D02*
X114935000Y-102235000D01*
X116205000Y-104775000D02*
X116205000Y-103505000D01*
X114935000Y-106045000D02*
X116205000Y-104775000D01*
X95250000Y-115570000D02*
X91440000Y-115570000D01*
X74930000Y-95250000D02*
X74930000Y-100330000D01*
X83185000Y-106680000D02*
X87630000Y-109220000D01*
X74930000Y-100330000D02*
X83185000Y-106680000D01*
X104775000Y-116840000D02*
X101600000Y-116840000D01*
X100330000Y-118110000D02*
X97790000Y-118110000D01*
X100330000Y-118110000D02*
X100330000Y-118110000D01*
X101600000Y-116840000D02*
X100330000Y-118110000D01*
X104775000Y-116840000D02*
X105410000Y-116840000D01*
X105410000Y-116840000D02*
X112395000Y-114300000D01*
X95252540Y-111760000D02*
X95250000Y-113665000D01*
X95250000Y-113665000D02*
X95250000Y-115570000D01*
X97790000Y-118110000D02*
X95250000Y-115570000D01*
X67310000Y-90170000D02*
X74930000Y-90170000D01*
X74930000Y-90170000D02*
X74930000Y-95250000D01*
X67310000Y-85090000D02*
X67310000Y-90170000D01*
X67310000Y-80010000D02*
X67310000Y-85090000D01*
X99695000Y-105410000D02*
X95250000Y-105410000D01*
X95250000Y-105410000D02*
X95250000Y-101600000D01*
X95250000Y-101600000D02*
X95252540Y-101600000D01*
X139700000Y-114300000D02*
X139700000Y-106045000D01*
X139700000Y-88900000D02*
X139700000Y-90170000D01*
X137160000Y-114300000D02*
X139700000Y-114300000D01*
X139700000Y-88900000D02*
X137160000Y-88900000D01*
X139700000Y-102235000D02*
X139700000Y-90170000D01*
X140970000Y-103505000D02*
X139700000Y-102235000D01*
X140970000Y-104775000D02*
X140970000Y-103505000D01*
X139700000Y-106045000D02*
X140970000Y-104775000D01*
X120015000Y-115570000D02*
X116205000Y-115570000D01*
X112395000Y-109220000D02*
X107315000Y-106045000D01*
X99695000Y-100330000D02*
X99695000Y-95250000D01*
X107315000Y-106045000D02*
X99695000Y-100330000D01*
X129540000Y-116840000D02*
X126365000Y-116840000D01*
X125095000Y-118110000D02*
X121920000Y-118110000D01*
X126365000Y-116840000D02*
X125095000Y-118110000D01*
X129540000Y-116840000D02*
X130175000Y-116840000D01*
X130175000Y-116840000D02*
X137160000Y-114300000D01*
X120015000Y-115570000D02*
X121920000Y-118110000D01*
X120017540Y-111760000D02*
X120015000Y-113665000D01*
X120015000Y-113665000D02*
X120015000Y-115570000D01*
X92075000Y-90170000D02*
X99695000Y-90170000D01*
X99695000Y-90170000D02*
X99695000Y-95250000D01*
X92075000Y-85090000D02*
X92075000Y-90170000D01*
X92075000Y-80010000D02*
X92075000Y-85090000D01*
X124460000Y-105410000D02*
X120015000Y-105410000D01*
X120015000Y-105410000D02*
X120015000Y-101600000D01*
X120015000Y-101600000D02*
X120017540Y-101600000D01*
X164465000Y-114300000D02*
X164465000Y-106045000D01*
X161925000Y-114300000D02*
X164465000Y-114300000D01*
X164465000Y-90170000D02*
X164465000Y-88900000D01*
X164465000Y-102235000D02*
X164465000Y-90170000D01*
X165100000Y-102870000D02*
X164465000Y-102235000D01*
X165100000Y-105410000D02*
X165100000Y-102870000D01*
X164465000Y-106045000D02*
X165100000Y-105410000D01*
X144780000Y-115570000D02*
X140970000Y-115570000D01*
X137160000Y-109220000D02*
X130810000Y-104775000D01*
X124460000Y-100330000D02*
X124460000Y-95250000D01*
X130810000Y-104775000D02*
X124460000Y-100330000D01*
X144782540Y-111760000D02*
X144782540Y-115567460D01*
X144782540Y-115567460D02*
X144780000Y-115570000D01*
X147320000Y-118110000D02*
X149860000Y-118110000D01*
X151130000Y-116840000D02*
X154305000Y-116840000D01*
X149860000Y-118110000D02*
X151130000Y-116840000D01*
X154305000Y-116840000D02*
X154940000Y-116840000D01*
X154940000Y-116840000D02*
X156845000Y-116205000D01*
X156845000Y-116205000D02*
X161925000Y-114300000D01*
X161925000Y-88900000D02*
X164465000Y-88900000D01*
X144780000Y-115570000D02*
X147320000Y-118110000D01*
X116840000Y-90170000D02*
X124460000Y-90170000D01*
X124460000Y-90170000D02*
X124460000Y-95250000D01*
X116840000Y-85090000D02*
X116840000Y-90170000D01*
X116840000Y-80010000D02*
X116840000Y-85090000D01*
X149225000Y-105410000D02*
X144780000Y-105410000D01*
X144780000Y-105410000D02*
X144780000Y-101600000D01*
X144780000Y-101600000D02*
X144782540Y-101600000D01*
X86360000Y-87630000D02*
X86360000Y-93980000D01*
X85090000Y-88900000D02*
X80645000Y-83820000D01*
X80645000Y-83820000D02*
X80645000Y-82550000D01*
X111125000Y-87630000D02*
X111125000Y-93980000D01*
X105410000Y-82550000D02*
X105410000Y-83820000D01*
X105410000Y-83820000D02*
X109855000Y-88900000D01*
X135890000Y-87630000D02*
X135890000Y-93980000D01*
X130175000Y-82550000D02*
X130175000Y-83820000D01*
X130175000Y-83820000D02*
X134620000Y-88900000D01*
X160655000Y-87630000D02*
X160655000Y-93980000D01*
X154940000Y-82550000D02*
X154940000Y-83820000D01*
X154940000Y-83820000D02*
X159385000Y-88900000D01*
X77470000Y-90170000D02*
X77470000Y-92710000D01*
X77470000Y-92710000D02*
X81280000Y-102235000D01*
X75565000Y-115570000D02*
X75565000Y-111760000D01*
X75565000Y-111760000D02*
X80010000Y-111760000D01*
X86360000Y-104140000D02*
X89535000Y-104140000D01*
X86360000Y-104140000D02*
X89535000Y-106680000D01*
X89535000Y-111760000D02*
X87630000Y-111760000D01*
X89535000Y-106680000D02*
X89535000Y-111760000D01*
X81280000Y-92075000D02*
X81280000Y-97155000D01*
X83820000Y-100965000D02*
X86360000Y-104140000D01*
X81280000Y-97155000D02*
X83820000Y-100965000D01*
X77470000Y-85090000D02*
X81280000Y-88265000D01*
X81280000Y-88265000D02*
X81280000Y-92075000D01*
X77470000Y-80010000D02*
X79375000Y-80010000D01*
X79375000Y-80010000D02*
X80645000Y-80010000D01*
X106045000Y-102235000D02*
X102235000Y-93345000D01*
X102235000Y-93345000D02*
X102235000Y-90170000D01*
X100330000Y-115570000D02*
X100330000Y-111760000D01*
X100330000Y-111760000D02*
X104775000Y-111760000D01*
X111125000Y-104140000D02*
X114300000Y-104140000D01*
X102235000Y-85090000D02*
X102870000Y-85090000D01*
X102870000Y-85090000D02*
X106045000Y-88265000D01*
X106045000Y-88265000D02*
X106045000Y-92075000D01*
X111125000Y-104140000D02*
X106045000Y-97155000D01*
X106045000Y-93345000D02*
X106045000Y-92075000D01*
X106045000Y-97155000D02*
X106045000Y-93345000D01*
X112395000Y-111760000D02*
X114300000Y-111760000D01*
X114300000Y-106680000D02*
X111125000Y-104140000D01*
X114300000Y-111760000D02*
X114300000Y-106680000D01*
X102235000Y-80010000D02*
X102235000Y-80010000D01*
X102235000Y-80010000D02*
X105410000Y-80010000D01*
X125095000Y-115570000D02*
X125095000Y-111760000D01*
X125095000Y-111760000D02*
X129540000Y-111760000D01*
X127000000Y-90170000D02*
X127000000Y-93345000D01*
X127000000Y-93345000D02*
X130810000Y-102235000D01*
X135890000Y-104140000D02*
X139065000Y-104140000D01*
X135890000Y-104140000D02*
X135255000Y-103505000D01*
X135255000Y-103505000D02*
X130810000Y-97155000D01*
X130810000Y-97155000D02*
X130810000Y-92075000D01*
X135890000Y-104140000D02*
X139065000Y-106680000D01*
X139065000Y-111760000D02*
X137160000Y-111760000D01*
X139065000Y-106680000D02*
X139065000Y-111760000D01*
X127000000Y-85090000D02*
X130810000Y-88265000D01*
X130810000Y-88265000D02*
X130810000Y-92075000D01*
X127000000Y-80010000D02*
X130175000Y-80010000D01*
X149860000Y-115570000D02*
X149860000Y-111760000D01*
X149860000Y-111760000D02*
X154305000Y-111760000D01*
X151765000Y-90170000D02*
X151765000Y-93345000D01*
X151765000Y-93345000D02*
X155575000Y-102235000D01*
X160655000Y-104140000D02*
X163195000Y-104140000D01*
X151765000Y-85090000D02*
X155575000Y-88265000D01*
X155575000Y-88265000D02*
X155575000Y-92075000D01*
X155575000Y-92075000D02*
X155575000Y-97155000D01*
X155575000Y-97155000D02*
X160655000Y-104140000D01*
X160655000Y-104140000D02*
X163830000Y-106680000D01*
X163830000Y-106680000D02*
X163830000Y-111760000D01*
X163830000Y-111760000D02*
X161925000Y-111760000D01*
X151765000Y-80010000D02*
X154940000Y-80010000D01*
D30*
G36*
X189211103Y-91599731D02*
X189187150Y-91657558D01*
X189152999Y-91707540D01*
X189140136Y-91771061D01*
X189114430Y-91833120D01*
X189114430Y-91897999D01*
X189101990Y-91959430D01*
X189101990Y-93460570D01*
X189114430Y-93526683D01*
X189114430Y-93586880D01*
X189135185Y-93636988D01*
X189146268Y-93695887D01*
X189183637Y-93753960D01*
X189211103Y-93820269D01*
X189253745Y-93862910D01*
X189285340Y-93912011D01*
X189340610Y-93949776D01*
X189389732Y-93998897D01*
X189447556Y-94022849D01*
X189497540Y-94057001D01*
X189561063Y-94069865D01*
X189623121Y-94095570D01*
X189687999Y-94095570D01*
X189749430Y-94108010D01*
X191250570Y-94108010D01*
X191316683Y-94095570D01*
X191376879Y-94095570D01*
X191426986Y-94074815D01*
X191485887Y-94063732D01*
X191543961Y-94026362D01*
X191610268Y-93998897D01*
X191652909Y-93956256D01*
X191702011Y-93924660D01*
X191739775Y-93869391D01*
X191788897Y-93820269D01*
X191812850Y-93762442D01*
X191847001Y-93712460D01*
X191859864Y-93648939D01*
X191885570Y-93586880D01*
X191885570Y-93522001D01*
X191898010Y-93460570D01*
X191898010Y-91959430D01*
X191885570Y-91893317D01*
X191885570Y-91833120D01*
X191864815Y-91783012D01*
X191853732Y-91724113D01*
X191816363Y-91666040D01*
X191788897Y-91599731D01*
X191756165Y-91567000D01*
X195593834Y-91567000D01*
X195561103Y-91599731D01*
X195537150Y-91657558D01*
X195502999Y-91707540D01*
X195490136Y-91771061D01*
X195464430Y-91833120D01*
X195464430Y-91897999D01*
X195451990Y-91959430D01*
X195451990Y-93460570D01*
X195464430Y-93526683D01*
X195464430Y-93586880D01*
X195485185Y-93636988D01*
X195496268Y-93695887D01*
X195533637Y-93753960D01*
X195561103Y-93820269D01*
X195603745Y-93862910D01*
X195635340Y-93912011D01*
X195690610Y-93949776D01*
X195739732Y-93998897D01*
X195797556Y-94022849D01*
X195847540Y-94057001D01*
X195911063Y-94069865D01*
X195973121Y-94095570D01*
X196037999Y-94095570D01*
X196099430Y-94108010D01*
X197600570Y-94108010D01*
X197666683Y-94095570D01*
X197726879Y-94095570D01*
X197776986Y-94074815D01*
X197835887Y-94063732D01*
X197893961Y-94026362D01*
X197960268Y-93998897D01*
X197993000Y-93966165D01*
X197993000Y-100343834D01*
X197960268Y-100311103D01*
X197902444Y-100287151D01*
X197852460Y-100252999D01*
X197788937Y-100240135D01*
X197726879Y-100214430D01*
X197662001Y-100214430D01*
X197600570Y-100201990D01*
X196099430Y-100201990D01*
X196033317Y-100214430D01*
X195973121Y-100214430D01*
X195923014Y-100235185D01*
X195864113Y-100246268D01*
X195806039Y-100283638D01*
X195739732Y-100311103D01*
X195697091Y-100353744D01*
X195647989Y-100385340D01*
X195610225Y-100440609D01*
X195561103Y-100489731D01*
X195537150Y-100547558D01*
X195502999Y-100597540D01*
X195490136Y-100661061D01*
X195464430Y-100723120D01*
X195464430Y-100787999D01*
X195451990Y-100849430D01*
X195451990Y-102350570D01*
X195464430Y-102416683D01*
X195464430Y-102476880D01*
X195485185Y-102526988D01*
X195496268Y-102585887D01*
X195533637Y-102643960D01*
X195561103Y-102710269D01*
X195603745Y-102752910D01*
X195635340Y-102802011D01*
X195690610Y-102839776D01*
X195739732Y-102888897D01*
X195797556Y-102912849D01*
X195847540Y-102947001D01*
X195911063Y-102959865D01*
X195973121Y-102985570D01*
X196037999Y-102985570D01*
X196099430Y-102998010D01*
X197600570Y-102998010D01*
X197666683Y-102985570D01*
X197726879Y-102985570D01*
X197776986Y-102964815D01*
X197835887Y-102953732D01*
X197893961Y-102916362D01*
X197960268Y-102888897D01*
X197993000Y-102856165D01*
X197993000Y-109233834D01*
X197960268Y-109201103D01*
X197902444Y-109177151D01*
X197852460Y-109142999D01*
X197788937Y-109130135D01*
X197726879Y-109104430D01*
X197662001Y-109104430D01*
X197600570Y-109091990D01*
X196099430Y-109091990D01*
X196033317Y-109104430D01*
X195973121Y-109104430D01*
X195923014Y-109125185D01*
X195864113Y-109136268D01*
X195806039Y-109173638D01*
X195739732Y-109201103D01*
X195697091Y-109243744D01*
X195647989Y-109275340D01*
X195610225Y-109330609D01*
X195561103Y-109379731D01*
X195537150Y-109437558D01*
X195502999Y-109487540D01*
X195490136Y-109551061D01*
X195464430Y-109613120D01*
X195464430Y-109677999D01*
X195451990Y-109739430D01*
X195451990Y-111240570D01*
X195464430Y-111306683D01*
X195464430Y-111366880D01*
X195485185Y-111416988D01*
X195496268Y-111475887D01*
X195533637Y-111533960D01*
X195561103Y-111600269D01*
X195593835Y-111633000D01*
X185406166Y-111633000D01*
X185438897Y-111600269D01*
X185462850Y-111542442D01*
X185497001Y-111492460D01*
X185509864Y-111428939D01*
X185535570Y-111366880D01*
X185535570Y-111302001D01*
X185548010Y-111240570D01*
X185548010Y-109739430D01*
X185535570Y-109673317D01*
X185535570Y-109613120D01*
X185514815Y-109563012D01*
X185503732Y-109504113D01*
X185466363Y-109446040D01*
X185438897Y-109379731D01*
X185396255Y-109337090D01*
X185364660Y-109287989D01*
X185309390Y-109250224D01*
X185260268Y-109201103D01*
X185202444Y-109177151D01*
X185152460Y-109142999D01*
X185088937Y-109130135D01*
X185026879Y-109104430D01*
X184962001Y-109104430D01*
X184900570Y-109091990D01*
X183399430Y-109091990D01*
X183333317Y-109104430D01*
X183273121Y-109104430D01*
X183223014Y-109125185D01*
X183164113Y-109136268D01*
X183106039Y-109173638D01*
X183039732Y-109201103D01*
X183007000Y-109233835D01*
X183007000Y-102856166D01*
X183039732Y-102888897D01*
X183097556Y-102912849D01*
X183147540Y-102947001D01*
X183211063Y-102959865D01*
X183273121Y-102985570D01*
X183337999Y-102985570D01*
X183399430Y-102998010D01*
X184900570Y-102998010D01*
X184966683Y-102985570D01*
X185026879Y-102985570D01*
X185076986Y-102964815D01*
X185135887Y-102953732D01*
X185193961Y-102916362D01*
X185260268Y-102888897D01*
X185302909Y-102846256D01*
X185352011Y-102814660D01*
X185389775Y-102759391D01*
X185438897Y-102710269D01*
X185462850Y-102652442D01*
X185497001Y-102602460D01*
X185509864Y-102538939D01*
X185535570Y-102476880D01*
X185535570Y-102412001D01*
X185548010Y-102350570D01*
X185548010Y-100849430D01*
X185535570Y-100783317D01*
X185535570Y-100723120D01*
X185514815Y-100673012D01*
X185503732Y-100614113D01*
X185466363Y-100556040D01*
X185438897Y-100489731D01*
X185396255Y-100447090D01*
X185364660Y-100397989D01*
X185309390Y-100360224D01*
X185260268Y-100311103D01*
X185202444Y-100287151D01*
X185152460Y-100252999D01*
X185088937Y-100240135D01*
X185026879Y-100214430D01*
X184962001Y-100214430D01*
X184900570Y-100201990D01*
X183399430Y-100201990D01*
X183333317Y-100214430D01*
X183273121Y-100214430D01*
X183223014Y-100235185D01*
X183164113Y-100246268D01*
X183106039Y-100283638D01*
X183039732Y-100311103D01*
X183007000Y-100343835D01*
X183007000Y-97056862D01*
X187960218Y-97056862D01*
X187965069Y-97547468D01*
X187964641Y-98038015D01*
X187970049Y-98051103D01*
X187970189Y-98065266D01*
X188336906Y-98950599D01*
X188343224Y-98954256D01*
X188349746Y-98970041D01*
X189062208Y-99683748D01*
X189081046Y-99691570D01*
X189085401Y-99699094D01*
X189540475Y-99882342D01*
X189993561Y-100070479D01*
X190007723Y-100070491D01*
X190020862Y-100075782D01*
X190511468Y-100070931D01*
X191002015Y-100071359D01*
X191015103Y-100065951D01*
X191029266Y-100065811D01*
X191914599Y-99699094D01*
X191918256Y-99692776D01*
X191934041Y-99686254D01*
X192647748Y-98973792D01*
X192655570Y-98954954D01*
X192663094Y-98950599D01*
X192846342Y-98495525D01*
X193034479Y-98042439D01*
X193034491Y-98028277D01*
X193039782Y-98015138D01*
X193034931Y-97524532D01*
X193035359Y-97033985D01*
X193029951Y-97020897D01*
X193029811Y-97006734D01*
X192663094Y-96121401D01*
X192656776Y-96117744D01*
X192650254Y-96101959D01*
X191937792Y-95388252D01*
X191918954Y-95380430D01*
X191914599Y-95372906D01*
X191459525Y-95189658D01*
X191006439Y-95001521D01*
X190992277Y-95001509D01*
X190979138Y-94996218D01*
X190488532Y-95001069D01*
X189997985Y-95000641D01*
X189984897Y-95006049D01*
X189970734Y-95006189D01*
X189085401Y-95372906D01*
X189081744Y-95379224D01*
X189065959Y-95385746D01*
X188352252Y-96098208D01*
X188344430Y-96117046D01*
X188336906Y-96121401D01*
X188153658Y-96576475D01*
X187965521Y-97029561D01*
X187965509Y-97043723D01*
X187960218Y-97056862D01*
X183007000Y-97056862D01*
X183007000Y-93966166D01*
X183039732Y-93998897D01*
X183097556Y-94022849D01*
X183147540Y-94057001D01*
X183211063Y-94069865D01*
X183273121Y-94095570D01*
X183337999Y-94095570D01*
X183399430Y-94108010D01*
X184900570Y-94108010D01*
X184966683Y-94095570D01*
X185026879Y-94095570D01*
X185076986Y-94074815D01*
X185135887Y-94063732D01*
X185193961Y-94026362D01*
X185260268Y-93998897D01*
X185302909Y-93956256D01*
X185352011Y-93924660D01*
X185389775Y-93869391D01*
X185438897Y-93820269D01*
X185462850Y-93762442D01*
X185497001Y-93712460D01*
X185509864Y-93648939D01*
X185535570Y-93586880D01*
X185535570Y-93522001D01*
X185548010Y-93460570D01*
X185548010Y-91959430D01*
X185535570Y-91893317D01*
X185535570Y-91833120D01*
X185514815Y-91783012D01*
X185503732Y-91724113D01*
X185466363Y-91666040D01*
X185438897Y-91599731D01*
X185406165Y-91567000D01*
X189243834Y-91567000D01*
X189211103Y-91599731D01*
X189211103Y-91599731D01*
G37*
X189211103Y-91599731D02*
X189187150Y-91657558D01*
X189152999Y-91707540D01*
X189140136Y-91771061D01*
X189114430Y-91833120D01*
X189114430Y-91897999D01*
X189101990Y-91959430D01*
X189101990Y-93460570D01*
X189114430Y-93526683D01*
X189114430Y-93586880D01*
X189135185Y-93636988D01*
X189146268Y-93695887D01*
X189183637Y-93753960D01*
X189211103Y-93820269D01*
X189253745Y-93862910D01*
X189285340Y-93912011D01*
X189340610Y-93949776D01*
X189389732Y-93998897D01*
X189447556Y-94022849D01*
X189497540Y-94057001D01*
X189561063Y-94069865D01*
X189623121Y-94095570D01*
X189687999Y-94095570D01*
X189749430Y-94108010D01*
X191250570Y-94108010D01*
X191316683Y-94095570D01*
X191376879Y-94095570D01*
X191426986Y-94074815D01*
X191485887Y-94063732D01*
X191543961Y-94026362D01*
X191610268Y-93998897D01*
X191652909Y-93956256D01*
X191702011Y-93924660D01*
X191739775Y-93869391D01*
X191788897Y-93820269D01*
X191812850Y-93762442D01*
X191847001Y-93712460D01*
X191859864Y-93648939D01*
X191885570Y-93586880D01*
X191885570Y-93522001D01*
X191898010Y-93460570D01*
X191898010Y-91959430D01*
X191885570Y-91893317D01*
X191885570Y-91833120D01*
X191864815Y-91783012D01*
X191853732Y-91724113D01*
X191816363Y-91666040D01*
X191788897Y-91599731D01*
X191756165Y-91567000D01*
X195593834Y-91567000D01*
X195561103Y-91599731D01*
X195537150Y-91657558D01*
X195502999Y-91707540D01*
X195490136Y-91771061D01*
X195464430Y-91833120D01*
X195464430Y-91897999D01*
X195451990Y-91959430D01*
X195451990Y-93460570D01*
X195464430Y-93526683D01*
X195464430Y-93586880D01*
X195485185Y-93636988D01*
X195496268Y-93695887D01*
X195533637Y-93753960D01*
X195561103Y-93820269D01*
X195603745Y-93862910D01*
X195635340Y-93912011D01*
X195690610Y-93949776D01*
X195739732Y-93998897D01*
X195797556Y-94022849D01*
X195847540Y-94057001D01*
X195911063Y-94069865D01*
X195973121Y-94095570D01*
X196037999Y-94095570D01*
X196099430Y-94108010D01*
X197600570Y-94108010D01*
X197666683Y-94095570D01*
X197726879Y-94095570D01*
X197776986Y-94074815D01*
X197835887Y-94063732D01*
X197893961Y-94026362D01*
X197960268Y-93998897D01*
X197993000Y-93966165D01*
X197993000Y-100343834D01*
X197960268Y-100311103D01*
X197902444Y-100287151D01*
X197852460Y-100252999D01*
X197788937Y-100240135D01*
X197726879Y-100214430D01*
X197662001Y-100214430D01*
X197600570Y-100201990D01*
X196099430Y-100201990D01*
X196033317Y-100214430D01*
X195973121Y-100214430D01*
X195923014Y-100235185D01*
X195864113Y-100246268D01*
X195806039Y-100283638D01*
X195739732Y-100311103D01*
X195697091Y-100353744D01*
X195647989Y-100385340D01*
X195610225Y-100440609D01*
X195561103Y-100489731D01*
X195537150Y-100547558D01*
X195502999Y-100597540D01*
X195490136Y-100661061D01*
X195464430Y-100723120D01*
X195464430Y-100787999D01*
X195451990Y-100849430D01*
X195451990Y-102350570D01*
X195464430Y-102416683D01*
X195464430Y-102476880D01*
X195485185Y-102526988D01*
X195496268Y-102585887D01*
X195533637Y-102643960D01*
X195561103Y-102710269D01*
X195603745Y-102752910D01*
X195635340Y-102802011D01*
X195690610Y-102839776D01*
X195739732Y-102888897D01*
X195797556Y-102912849D01*
X195847540Y-102947001D01*
X195911063Y-102959865D01*
X195973121Y-102985570D01*
X196037999Y-102985570D01*
X196099430Y-102998010D01*
X197600570Y-102998010D01*
X197666683Y-102985570D01*
X197726879Y-102985570D01*
X197776986Y-102964815D01*
X197835887Y-102953732D01*
X197893961Y-102916362D01*
X197960268Y-102888897D01*
X197993000Y-102856165D01*
X197993000Y-109233834D01*
X197960268Y-109201103D01*
X197902444Y-109177151D01*
X197852460Y-109142999D01*
X197788937Y-109130135D01*
X197726879Y-109104430D01*
X197662001Y-109104430D01*
X197600570Y-109091990D01*
X196099430Y-109091990D01*
X196033317Y-109104430D01*
X195973121Y-109104430D01*
X195923014Y-109125185D01*
X195864113Y-109136268D01*
X195806039Y-109173638D01*
X195739732Y-109201103D01*
X195697091Y-109243744D01*
X195647989Y-109275340D01*
X195610225Y-109330609D01*
X195561103Y-109379731D01*
X195537150Y-109437558D01*
X195502999Y-109487540D01*
X195490136Y-109551061D01*
X195464430Y-109613120D01*
X195464430Y-109677999D01*
X195451990Y-109739430D01*
X195451990Y-111240570D01*
X195464430Y-111306683D01*
X195464430Y-111366880D01*
X195485185Y-111416988D01*
X195496268Y-111475887D01*
X195533637Y-111533960D01*
X195561103Y-111600269D01*
X195593835Y-111633000D01*
X185406166Y-111633000D01*
X185438897Y-111600269D01*
X185462850Y-111542442D01*
X185497001Y-111492460D01*
X185509864Y-111428939D01*
X185535570Y-111366880D01*
X185535570Y-111302001D01*
X185548010Y-111240570D01*
X185548010Y-109739430D01*
X185535570Y-109673317D01*
X185535570Y-109613120D01*
X185514815Y-109563012D01*
X185503732Y-109504113D01*
X185466363Y-109446040D01*
X185438897Y-109379731D01*
X185396255Y-109337090D01*
X185364660Y-109287989D01*
X185309390Y-109250224D01*
X185260268Y-109201103D01*
X185202444Y-109177151D01*
X185152460Y-109142999D01*
X185088937Y-109130135D01*
X185026879Y-109104430D01*
X184962001Y-109104430D01*
X184900570Y-109091990D01*
X183399430Y-109091990D01*
X183333317Y-109104430D01*
X183273121Y-109104430D01*
X183223014Y-109125185D01*
X183164113Y-109136268D01*
X183106039Y-109173638D01*
X183039732Y-109201103D01*
X183007000Y-109233835D01*
X183007000Y-102856166D01*
X183039732Y-102888897D01*
X183097556Y-102912849D01*
X183147540Y-102947001D01*
X183211063Y-102959865D01*
X183273121Y-102985570D01*
X183337999Y-102985570D01*
X183399430Y-102998010D01*
X184900570Y-102998010D01*
X184966683Y-102985570D01*
X185026879Y-102985570D01*
X185076986Y-102964815D01*
X185135887Y-102953732D01*
X185193961Y-102916362D01*
X185260268Y-102888897D01*
X185302909Y-102846256D01*
X185352011Y-102814660D01*
X185389775Y-102759391D01*
X185438897Y-102710269D01*
X185462850Y-102652442D01*
X185497001Y-102602460D01*
X185509864Y-102538939D01*
X185535570Y-102476880D01*
X185535570Y-102412001D01*
X185548010Y-102350570D01*
X185548010Y-100849430D01*
X185535570Y-100783317D01*
X185535570Y-100723120D01*
X185514815Y-100673012D01*
X185503732Y-100614113D01*
X185466363Y-100556040D01*
X185438897Y-100489731D01*
X185396255Y-100447090D01*
X185364660Y-100397989D01*
X185309390Y-100360224D01*
X185260268Y-100311103D01*
X185202444Y-100287151D01*
X185152460Y-100252999D01*
X185088937Y-100240135D01*
X185026879Y-100214430D01*
X184962001Y-100214430D01*
X184900570Y-100201990D01*
X183399430Y-100201990D01*
X183333317Y-100214430D01*
X183273121Y-100214430D01*
X183223014Y-100235185D01*
X183164113Y-100246268D01*
X183106039Y-100283638D01*
X183039732Y-100311103D01*
X183007000Y-100343835D01*
X183007000Y-97056862D01*
X187960218Y-97056862D01*
X187965069Y-97547468D01*
X187964641Y-98038015D01*
X187970049Y-98051103D01*
X187970189Y-98065266D01*
X188336906Y-98950599D01*
X188343224Y-98954256D01*
X188349746Y-98970041D01*
X189062208Y-99683748D01*
X189081046Y-99691570D01*
X189085401Y-99699094D01*
X189540475Y-99882342D01*
X189993561Y-100070479D01*
X190007723Y-100070491D01*
X190020862Y-100075782D01*
X190511468Y-100070931D01*
X191002015Y-100071359D01*
X191015103Y-100065951D01*
X191029266Y-100065811D01*
X191914599Y-99699094D01*
X191918256Y-99692776D01*
X191934041Y-99686254D01*
X192647748Y-98973792D01*
X192655570Y-98954954D01*
X192663094Y-98950599D01*
X192846342Y-98495525D01*
X193034479Y-98042439D01*
X193034491Y-98028277D01*
X193039782Y-98015138D01*
X193034931Y-97524532D01*
X193035359Y-97033985D01*
X193029951Y-97020897D01*
X193029811Y-97006734D01*
X192663094Y-96121401D01*
X192656776Y-96117744D01*
X192650254Y-96101959D01*
X191937792Y-95388252D01*
X191918954Y-95380430D01*
X191914599Y-95372906D01*
X191459525Y-95189658D01*
X191006439Y-95001521D01*
X190992277Y-95001509D01*
X190979138Y-94996218D01*
X190488532Y-95001069D01*
X189997985Y-95000641D01*
X189984897Y-95006049D01*
X189970734Y-95006189D01*
X189085401Y-95372906D01*
X189081744Y-95379224D01*
X189065959Y-95385746D01*
X188352252Y-96098208D01*
X188344430Y-96117046D01*
X188336906Y-96121401D01*
X188153658Y-96576475D01*
X187965521Y-97029561D01*
X187965509Y-97043723D01*
X187960218Y-97056862D01*
X183007000Y-97056862D01*
X183007000Y-93966166D01*
X183039732Y-93998897D01*
X183097556Y-94022849D01*
X183147540Y-94057001D01*
X183211063Y-94069865D01*
X183273121Y-94095570D01*
X183337999Y-94095570D01*
X183399430Y-94108010D01*
X184900570Y-94108010D01*
X184966683Y-94095570D01*
X185026879Y-94095570D01*
X185076986Y-94074815D01*
X185135887Y-94063732D01*
X185193961Y-94026362D01*
X185260268Y-93998897D01*
X185302909Y-93956256D01*
X185352011Y-93924660D01*
X185389775Y-93869391D01*
X185438897Y-93820269D01*
X185462850Y-93762442D01*
X185497001Y-93712460D01*
X185509864Y-93648939D01*
X185535570Y-93586880D01*
X185535570Y-93522001D01*
X185548010Y-93460570D01*
X185548010Y-91959430D01*
X185535570Y-91893317D01*
X185535570Y-91833120D01*
X185514815Y-91783012D01*
X185503732Y-91724113D01*
X185466363Y-91666040D01*
X185438897Y-91599731D01*
X185406165Y-91567000D01*
X189243834Y-91567000D01*
X189211103Y-91599731D01*
M02*
