G04 #@! TF.FileFunction,Legend,Top*
%FSLAX46Y46*%
G04 Gerber Fmt 4.6, Leading zero omitted, Abs format (unit mm)*
G04 Created by KiCad (PCBNEW 4.0.2+dfsg1-stable) date Sat 01 Jul 2017 08:29:19 PM EDT*
%MOMM*%
G01*
G04 APERTURE LIST*
%ADD10C,0.100000*%
%ADD11C,0.150000*%
G04 APERTURE END LIST*
D10*
D11*
X166985000Y-114820000D02*
X166985000Y-118820000D01*
X164485000Y-114820000D02*
X164485000Y-118820000D01*
X173720000Y-112030000D02*
X173720000Y-119030000D01*
X173720000Y-119030000D02*
X171720000Y-119030000D01*
X171720000Y-119030000D02*
X171720000Y-112030000D01*
X171720000Y-112030000D02*
X173720000Y-112030000D01*
X166640000Y-101235000D02*
X173640000Y-101235000D01*
X173640000Y-101235000D02*
X173640000Y-103235000D01*
X173640000Y-103235000D02*
X166640000Y-103235000D01*
X166640000Y-103235000D02*
X166640000Y-101235000D01*
X179015000Y-107909000D02*
X179015000Y-102911000D01*
X178875000Y-107901000D02*
X178875000Y-102919000D01*
X178735000Y-107885000D02*
X178735000Y-105505000D01*
X178735000Y-105315000D02*
X178735000Y-102935000D01*
X178595000Y-107861000D02*
X178595000Y-105900000D01*
X178595000Y-104920000D02*
X178595000Y-102959000D01*
X178455000Y-107828000D02*
X178455000Y-106067000D01*
X178455000Y-104753000D02*
X178455000Y-102992000D01*
X178315000Y-107787000D02*
X178315000Y-106174000D01*
X178315000Y-104646000D02*
X178315000Y-103033000D01*
X178175000Y-107737000D02*
X178175000Y-106245000D01*
X178175000Y-104575000D02*
X178175000Y-103083000D01*
X178035000Y-107676000D02*
X178035000Y-106289000D01*
X178035000Y-104531000D02*
X178035000Y-103144000D01*
X177895000Y-107606000D02*
X177895000Y-106308000D01*
X177895000Y-104512000D02*
X177895000Y-103214000D01*
X177755000Y-107524000D02*
X177755000Y-106306000D01*
X177755000Y-104514000D02*
X177755000Y-103296000D01*
X177615000Y-107429000D02*
X177615000Y-106281000D01*
X177615000Y-104539000D02*
X177615000Y-103391000D01*
X177475000Y-107318000D02*
X177475000Y-106233000D01*
X177475000Y-104587000D02*
X177475000Y-103502000D01*
X177335000Y-107190000D02*
X177335000Y-106155000D01*
X177335000Y-104665000D02*
X177335000Y-103630000D01*
X177195000Y-107041000D02*
X177195000Y-106038000D01*
X177195000Y-104782000D02*
X177195000Y-103779000D01*
X177055000Y-106862000D02*
X177055000Y-105850000D01*
X177055000Y-104970000D02*
X177055000Y-103958000D01*
X176915000Y-106643000D02*
X176915000Y-104177000D01*
X176775000Y-106354000D02*
X176775000Y-104466000D01*
X176635000Y-105882000D02*
X176635000Y-104938000D01*
X178740000Y-105410000D02*
G75*
G03X178740000Y-105410000I-900000J0D01*
G01*
X181627500Y-105410000D02*
G75*
G03X181627500Y-105410000I-2537500J0D01*
G01*
X70487540Y-109220000D02*
X70487540Y-110236000D01*
X70487540Y-104394000D02*
X70487540Y-103124000D01*
X71757540Y-104648000D02*
X69217540Y-104648000D01*
X71757540Y-104902000D02*
X69217540Y-104902000D01*
X71757540Y-105156000D02*
X69217540Y-105156000D01*
X71757540Y-104394000D02*
X69217540Y-104394000D01*
X71757540Y-105410000D02*
X69217540Y-104140000D01*
X71757540Y-104140000D02*
X69217540Y-105410000D01*
X71757540Y-105410000D02*
X69217540Y-105410000D01*
X71757540Y-104775000D02*
X69217540Y-104775000D01*
X69217540Y-104140000D02*
X71757540Y-104140000D01*
X71757540Y-104140000D02*
X71757540Y-109220000D01*
X71757540Y-109220000D02*
X69217540Y-109220000D01*
X69217540Y-109220000D02*
X69217540Y-104140000D01*
X95252540Y-109220000D02*
X95252540Y-110236000D01*
X95252540Y-104394000D02*
X95252540Y-103124000D01*
X96522540Y-104648000D02*
X93982540Y-104648000D01*
X96522540Y-104902000D02*
X93982540Y-104902000D01*
X96522540Y-105156000D02*
X93982540Y-105156000D01*
X96522540Y-104394000D02*
X93982540Y-104394000D01*
X96522540Y-105410000D02*
X93982540Y-104140000D01*
X96522540Y-104140000D02*
X93982540Y-105410000D01*
X96522540Y-105410000D02*
X93982540Y-105410000D01*
X96522540Y-104775000D02*
X93982540Y-104775000D01*
X93982540Y-104140000D02*
X96522540Y-104140000D01*
X96522540Y-104140000D02*
X96522540Y-109220000D01*
X96522540Y-109220000D02*
X93982540Y-109220000D01*
X93982540Y-109220000D02*
X93982540Y-104140000D01*
X120017540Y-109220000D02*
X120017540Y-110236000D01*
X120017540Y-104394000D02*
X120017540Y-103124000D01*
X121287540Y-104648000D02*
X118747540Y-104648000D01*
X121287540Y-104902000D02*
X118747540Y-104902000D01*
X121287540Y-105156000D02*
X118747540Y-105156000D01*
X121287540Y-104394000D02*
X118747540Y-104394000D01*
X121287540Y-105410000D02*
X118747540Y-104140000D01*
X121287540Y-104140000D02*
X118747540Y-105410000D01*
X121287540Y-105410000D02*
X118747540Y-105410000D01*
X121287540Y-104775000D02*
X118747540Y-104775000D01*
X118747540Y-104140000D02*
X121287540Y-104140000D01*
X121287540Y-104140000D02*
X121287540Y-109220000D01*
X121287540Y-109220000D02*
X118747540Y-109220000D01*
X118747540Y-109220000D02*
X118747540Y-104140000D01*
X144782540Y-109220000D02*
X144782540Y-110236000D01*
X144782540Y-104394000D02*
X144782540Y-103124000D01*
X146052540Y-104648000D02*
X143512540Y-104648000D01*
X146052540Y-104902000D02*
X143512540Y-104902000D01*
X146052540Y-105156000D02*
X143512540Y-105156000D01*
X146052540Y-104394000D02*
X143512540Y-104394000D01*
X146052540Y-105410000D02*
X143512540Y-104140000D01*
X146052540Y-104140000D02*
X143512540Y-105410000D01*
X146052540Y-105410000D02*
X143512540Y-105410000D01*
X146052540Y-104775000D02*
X143512540Y-104775000D01*
X143512540Y-104140000D02*
X146052540Y-104140000D01*
X146052540Y-104140000D02*
X146052540Y-109220000D01*
X146052540Y-109220000D02*
X143512540Y-109220000D01*
X143512540Y-109220000D02*
X143512540Y-104140000D01*
X191770000Y-82550000D02*
X196850000Y-82550000D01*
X188950000Y-82830000D02*
X188950000Y-81280000D01*
X189230000Y-80010000D02*
X191770000Y-80010000D01*
X191770000Y-80010000D02*
X191770000Y-82550000D01*
X196850000Y-82550000D02*
X196850000Y-77470000D01*
X196850000Y-77470000D02*
X191770000Y-77470000D01*
X188950000Y-82830000D02*
X190500000Y-82830000D01*
X189230000Y-77470000D02*
X189230000Y-80010000D01*
X191770000Y-77470000D02*
X189230000Y-77470000D01*
X179110000Y-77180000D02*
X179110000Y-76680000D01*
X178610000Y-81180000D02*
G75*
G03X178610000Y-81180000I-2000000J0D01*
G01*
X183610000Y-81180000D02*
G75*
G03X183610000Y-81180000I-2000000J0D01*
G01*
X184110000Y-78680000D02*
X174110000Y-78680000D01*
X184110000Y-83580000D02*
X174110000Y-83580000D01*
X184110000Y-77180000D02*
X174110000Y-77180000D01*
X184110000Y-76680000D02*
X174110000Y-76680000D01*
X174110000Y-76680000D02*
X174110000Y-86480000D01*
X174110000Y-86480000D02*
X184110000Y-86480000D01*
X184110000Y-86480000D02*
X184110000Y-76680000D01*
X175514000Y-118364000D02*
X176022000Y-117856000D01*
X175514000Y-117348000D02*
X175006000Y-117856000D01*
X175006000Y-117856000D02*
X175514000Y-118364000D01*
X180086000Y-115570000D02*
G75*
G03X180086000Y-115570000I-2286000J0D01*
G01*
X180550000Y-115570000D02*
G75*
G03X180550000Y-115570000I-2750000J0D01*
G01*
X89154000Y-91186000D02*
X88646000Y-90678000D01*
X88138000Y-91186000D02*
X88646000Y-91694000D01*
X88646000Y-91694000D02*
X89154000Y-91186000D01*
X88646000Y-88900000D02*
G75*
G03X88646000Y-88900000I-2286000J0D01*
G01*
X89110000Y-88900000D02*
G75*
G03X89110000Y-88900000I-2750000J0D01*
G01*
X113919000Y-91186000D02*
X113411000Y-90678000D01*
X112903000Y-91186000D02*
X113411000Y-91694000D01*
X113411000Y-91694000D02*
X113919000Y-91186000D01*
X113411000Y-88900000D02*
G75*
G03X113411000Y-88900000I-2286000J0D01*
G01*
X113875000Y-88900000D02*
G75*
G03X113875000Y-88900000I-2750000J0D01*
G01*
X138684000Y-91186000D02*
X138176000Y-90678000D01*
X137668000Y-91186000D02*
X138176000Y-91694000D01*
X138176000Y-91694000D02*
X138684000Y-91186000D01*
X138176000Y-88900000D02*
G75*
G03X138176000Y-88900000I-2286000J0D01*
G01*
X138640000Y-88900000D02*
G75*
G03X138640000Y-88900000I-2750000J0D01*
G01*
X163449000Y-91186000D02*
X162941000Y-90678000D01*
X162433000Y-91186000D02*
X162941000Y-91694000D01*
X162941000Y-91694000D02*
X163449000Y-91186000D01*
X162941000Y-88900000D02*
G75*
G03X162941000Y-88900000I-2286000J0D01*
G01*
X163405000Y-88900000D02*
G75*
G03X163405000Y-88900000I-2750000J0D01*
G01*
X76200000Y-97790000D02*
X76200000Y-102870000D01*
X76200000Y-102870000D02*
X73660000Y-102870000D01*
X73660000Y-102870000D02*
X73660000Y-97790000D01*
X73660000Y-97790000D02*
X76200000Y-97790000D01*
X74930000Y-97790000D02*
X74930000Y-96520000D01*
X74930000Y-102870000D02*
X74930000Y-104140000D01*
X76835000Y-114935000D02*
X77851000Y-114935000D01*
X71755000Y-114935000D02*
X74295000Y-114935000D01*
X68199000Y-114935000D02*
X69215000Y-114935000D01*
X76581000Y-118872000D02*
X76581000Y-117602000D01*
X75793600Y-118122700D02*
X75831700Y-118376700D01*
X75831700Y-118376700D02*
X76009500Y-118656100D01*
X76009500Y-118656100D02*
X76327000Y-118872000D01*
X76327000Y-118872000D02*
X76771500Y-118884700D01*
X76771500Y-118884700D02*
X77127100Y-118681500D01*
X77127100Y-118681500D02*
X77304900Y-118389400D01*
X77304900Y-118389400D02*
X77355700Y-118071900D01*
X77355700Y-118071900D02*
X77254100Y-117665500D01*
X77254100Y-117665500D02*
X76911200Y-117411500D01*
X76911200Y-117411500D02*
X76733400Y-117322600D01*
X77851000Y-118110000D02*
X77851000Y-119380000D01*
X77851000Y-119380000D02*
X68199000Y-119380000D01*
X68199000Y-119380000D02*
X68199000Y-114300000D01*
X77851000Y-114300000D02*
X77851000Y-116840000D01*
X77851000Y-116840000D02*
X77851000Y-118110000D01*
X82550000Y-94615000D02*
X82550000Y-99695000D01*
X82550000Y-99695000D02*
X80010000Y-99695000D01*
X80010000Y-99695000D02*
X80010000Y-94615000D01*
X80010000Y-94615000D02*
X82550000Y-94615000D01*
X81280000Y-94615000D02*
X81280000Y-93345000D01*
X81280000Y-99695000D02*
X81280000Y-100965000D01*
X69850000Y-83820000D02*
X74930000Y-83820000D01*
X74930000Y-83820000D02*
X74930000Y-86360000D01*
X74930000Y-86360000D02*
X69850000Y-86360000D01*
X69850000Y-86360000D02*
X69850000Y-83820000D01*
X69850000Y-85090000D02*
X68580000Y-85090000D01*
X74930000Y-85090000D02*
X76200000Y-85090000D01*
X87630000Y-96520000D02*
X87630000Y-101600000D01*
X87630000Y-101600000D02*
X85090000Y-101600000D01*
X85090000Y-101600000D02*
X85090000Y-96520000D01*
X85090000Y-96520000D02*
X87630000Y-96520000D01*
X86360000Y-96520000D02*
X86360000Y-95250000D01*
X86360000Y-101600000D02*
X86360000Y-102870000D01*
X69850000Y-78740000D02*
X74930000Y-78740000D01*
X74930000Y-78740000D02*
X74930000Y-81280000D01*
X74930000Y-81280000D02*
X69850000Y-81280000D01*
X69850000Y-81280000D02*
X69850000Y-78740000D01*
X69850000Y-80010000D02*
X68580000Y-80010000D01*
X74930000Y-80010000D02*
X76200000Y-80010000D01*
X100965000Y-97790000D02*
X100965000Y-102870000D01*
X100965000Y-102870000D02*
X98425000Y-102870000D01*
X98425000Y-102870000D02*
X98425000Y-97790000D01*
X98425000Y-97790000D02*
X100965000Y-97790000D01*
X99695000Y-97790000D02*
X99695000Y-96520000D01*
X99695000Y-102870000D02*
X99695000Y-104140000D01*
X101600000Y-114935000D02*
X102616000Y-114935000D01*
X96520000Y-114935000D02*
X99060000Y-114935000D01*
X92964000Y-114935000D02*
X93980000Y-114935000D01*
X101346000Y-118872000D02*
X101346000Y-117602000D01*
X100558600Y-118122700D02*
X100596700Y-118376700D01*
X100596700Y-118376700D02*
X100774500Y-118656100D01*
X100774500Y-118656100D02*
X101092000Y-118872000D01*
X101092000Y-118872000D02*
X101536500Y-118884700D01*
X101536500Y-118884700D02*
X101892100Y-118681500D01*
X101892100Y-118681500D02*
X102069900Y-118389400D01*
X102069900Y-118389400D02*
X102120700Y-118071900D01*
X102120700Y-118071900D02*
X102019100Y-117665500D01*
X102019100Y-117665500D02*
X101676200Y-117411500D01*
X101676200Y-117411500D02*
X101498400Y-117322600D01*
X102616000Y-118110000D02*
X102616000Y-119380000D01*
X102616000Y-119380000D02*
X92964000Y-119380000D01*
X92964000Y-119380000D02*
X92964000Y-114300000D01*
X102616000Y-114300000D02*
X102616000Y-116840000D01*
X102616000Y-116840000D02*
X102616000Y-118110000D01*
X107315000Y-94615000D02*
X107315000Y-99695000D01*
X107315000Y-99695000D02*
X104775000Y-99695000D01*
X104775000Y-99695000D02*
X104775000Y-94615000D01*
X104775000Y-94615000D02*
X107315000Y-94615000D01*
X106045000Y-94615000D02*
X106045000Y-93345000D01*
X106045000Y-99695000D02*
X106045000Y-100965000D01*
X94615000Y-83820000D02*
X99695000Y-83820000D01*
X99695000Y-83820000D02*
X99695000Y-86360000D01*
X99695000Y-86360000D02*
X94615000Y-86360000D01*
X94615000Y-86360000D02*
X94615000Y-83820000D01*
X94615000Y-85090000D02*
X93345000Y-85090000D01*
X99695000Y-85090000D02*
X100965000Y-85090000D01*
X112395000Y-96520000D02*
X112395000Y-101600000D01*
X112395000Y-101600000D02*
X109855000Y-101600000D01*
X109855000Y-101600000D02*
X109855000Y-96520000D01*
X109855000Y-96520000D02*
X112395000Y-96520000D01*
X111125000Y-96520000D02*
X111125000Y-95250000D01*
X111125000Y-101600000D02*
X111125000Y-102870000D01*
X94615000Y-78740000D02*
X99695000Y-78740000D01*
X99695000Y-78740000D02*
X99695000Y-81280000D01*
X99695000Y-81280000D02*
X94615000Y-81280000D01*
X94615000Y-81280000D02*
X94615000Y-78740000D01*
X94615000Y-80010000D02*
X93345000Y-80010000D01*
X99695000Y-80010000D02*
X100965000Y-80010000D01*
X125730000Y-97790000D02*
X125730000Y-102870000D01*
X125730000Y-102870000D02*
X123190000Y-102870000D01*
X123190000Y-102870000D02*
X123190000Y-97790000D01*
X123190000Y-97790000D02*
X125730000Y-97790000D01*
X124460000Y-97790000D02*
X124460000Y-96520000D01*
X124460000Y-102870000D02*
X124460000Y-104140000D01*
X126365000Y-114935000D02*
X127381000Y-114935000D01*
X121285000Y-114935000D02*
X123825000Y-114935000D01*
X117729000Y-114935000D02*
X118745000Y-114935000D01*
X126111000Y-118872000D02*
X126111000Y-117602000D01*
X125323600Y-118122700D02*
X125361700Y-118376700D01*
X125361700Y-118376700D02*
X125539500Y-118656100D01*
X125539500Y-118656100D02*
X125857000Y-118872000D01*
X125857000Y-118872000D02*
X126301500Y-118884700D01*
X126301500Y-118884700D02*
X126657100Y-118681500D01*
X126657100Y-118681500D02*
X126834900Y-118389400D01*
X126834900Y-118389400D02*
X126885700Y-118071900D01*
X126885700Y-118071900D02*
X126784100Y-117665500D01*
X126784100Y-117665500D02*
X126441200Y-117411500D01*
X126441200Y-117411500D02*
X126263400Y-117322600D01*
X127381000Y-118110000D02*
X127381000Y-119380000D01*
X127381000Y-119380000D02*
X117729000Y-119380000D01*
X117729000Y-119380000D02*
X117729000Y-114300000D01*
X127381000Y-114300000D02*
X127381000Y-116840000D01*
X127381000Y-116840000D02*
X127381000Y-118110000D01*
X132080000Y-94615000D02*
X132080000Y-99695000D01*
X132080000Y-99695000D02*
X129540000Y-99695000D01*
X129540000Y-99695000D02*
X129540000Y-94615000D01*
X129540000Y-94615000D02*
X132080000Y-94615000D01*
X130810000Y-94615000D02*
X130810000Y-93345000D01*
X130810000Y-99695000D02*
X130810000Y-100965000D01*
X119380000Y-83820000D02*
X124460000Y-83820000D01*
X124460000Y-83820000D02*
X124460000Y-86360000D01*
X124460000Y-86360000D02*
X119380000Y-86360000D01*
X119380000Y-86360000D02*
X119380000Y-83820000D01*
X119380000Y-85090000D02*
X118110000Y-85090000D01*
X124460000Y-85090000D02*
X125730000Y-85090000D01*
X137160000Y-96520000D02*
X137160000Y-101600000D01*
X137160000Y-101600000D02*
X134620000Y-101600000D01*
X134620000Y-101600000D02*
X134620000Y-96520000D01*
X134620000Y-96520000D02*
X137160000Y-96520000D01*
X135890000Y-96520000D02*
X135890000Y-95250000D01*
X135890000Y-101600000D02*
X135890000Y-102870000D01*
X119380000Y-78740000D02*
X124460000Y-78740000D01*
X124460000Y-78740000D02*
X124460000Y-81280000D01*
X124460000Y-81280000D02*
X119380000Y-81280000D01*
X119380000Y-81280000D02*
X119380000Y-78740000D01*
X119380000Y-80010000D02*
X118110000Y-80010000D01*
X124460000Y-80010000D02*
X125730000Y-80010000D01*
X150495000Y-97790000D02*
X150495000Y-102870000D01*
X150495000Y-102870000D02*
X147955000Y-102870000D01*
X147955000Y-102870000D02*
X147955000Y-97790000D01*
X147955000Y-97790000D02*
X150495000Y-97790000D01*
X149225000Y-97790000D02*
X149225000Y-96520000D01*
X149225000Y-102870000D02*
X149225000Y-104140000D01*
X151130000Y-114935000D02*
X152146000Y-114935000D01*
X146050000Y-114935000D02*
X148590000Y-114935000D01*
X142494000Y-114935000D02*
X143510000Y-114935000D01*
X150876000Y-118872000D02*
X150876000Y-117602000D01*
X150088600Y-118122700D02*
X150126700Y-118376700D01*
X150126700Y-118376700D02*
X150304500Y-118656100D01*
X150304500Y-118656100D02*
X150622000Y-118872000D01*
X150622000Y-118872000D02*
X151066500Y-118884700D01*
X151066500Y-118884700D02*
X151422100Y-118681500D01*
X151422100Y-118681500D02*
X151599900Y-118389400D01*
X151599900Y-118389400D02*
X151650700Y-118071900D01*
X151650700Y-118071900D02*
X151549100Y-117665500D01*
X151549100Y-117665500D02*
X151206200Y-117411500D01*
X151206200Y-117411500D02*
X151028400Y-117322600D01*
X152146000Y-118110000D02*
X152146000Y-119380000D01*
X152146000Y-119380000D02*
X142494000Y-119380000D01*
X142494000Y-119380000D02*
X142494000Y-114300000D01*
X152146000Y-114300000D02*
X152146000Y-116840000D01*
X152146000Y-116840000D02*
X152146000Y-118110000D01*
X156845000Y-94615000D02*
X156845000Y-99695000D01*
X156845000Y-99695000D02*
X154305000Y-99695000D01*
X154305000Y-99695000D02*
X154305000Y-94615000D01*
X154305000Y-94615000D02*
X156845000Y-94615000D01*
X155575000Y-94615000D02*
X155575000Y-93345000D01*
X155575000Y-99695000D02*
X155575000Y-100965000D01*
X144145000Y-83820000D02*
X149225000Y-83820000D01*
X149225000Y-83820000D02*
X149225000Y-86360000D01*
X149225000Y-86360000D02*
X144145000Y-86360000D01*
X144145000Y-86360000D02*
X144145000Y-83820000D01*
X144145000Y-85090000D02*
X142875000Y-85090000D01*
X149225000Y-85090000D02*
X150495000Y-85090000D01*
X161925000Y-96520000D02*
X161925000Y-101600000D01*
X161925000Y-101600000D02*
X159385000Y-101600000D01*
X159385000Y-101600000D02*
X159385000Y-96520000D01*
X159385000Y-96520000D02*
X161925000Y-96520000D01*
X160655000Y-96520000D02*
X160655000Y-95250000D01*
X160655000Y-101600000D02*
X160655000Y-102870000D01*
X144145000Y-78740000D02*
X149225000Y-78740000D01*
X149225000Y-78740000D02*
X149225000Y-81280000D01*
X149225000Y-81280000D02*
X144145000Y-81280000D01*
X144145000Y-81280000D02*
X144145000Y-78740000D01*
X144145000Y-80010000D02*
X142875000Y-80010000D01*
X149225000Y-80010000D02*
X150495000Y-80010000D01*
X167640000Y-113030000D02*
X167640000Y-107950000D01*
X167640000Y-107950000D02*
X170180000Y-107950000D01*
X170180000Y-107950000D02*
X170180000Y-113030000D01*
X170180000Y-113030000D02*
X167640000Y-113030000D01*
X168910000Y-113030000D02*
X168910000Y-114300000D01*
X168910000Y-107950000D02*
X168910000Y-106680000D01*
X175260000Y-99060000D02*
X170180000Y-99060000D01*
X170180000Y-99060000D02*
X170180000Y-96520000D01*
X170180000Y-96520000D02*
X175260000Y-96520000D01*
X175260000Y-96520000D02*
X175260000Y-99060000D01*
X175260000Y-97790000D02*
X176530000Y-97790000D01*
X170180000Y-97790000D02*
X168910000Y-97790000D01*
X174625000Y-92710000D02*
X169545000Y-92710000D01*
X169545000Y-92710000D02*
X169545000Y-90170000D01*
X169545000Y-90170000D02*
X174625000Y-90170000D01*
X174625000Y-90170000D02*
X174625000Y-92710000D01*
X174625000Y-91440000D02*
X175895000Y-91440000D01*
X169545000Y-91440000D02*
X168275000Y-91440000D01*
X80145000Y-106925000D02*
X80145000Y-108195000D01*
X87495000Y-106925000D02*
X87495000Y-108195000D01*
X87495000Y-119135000D02*
X87495000Y-117865000D01*
X80145000Y-119135000D02*
X80145000Y-117865000D01*
X80145000Y-106925000D02*
X87495000Y-106925000D01*
X80145000Y-119135000D02*
X87495000Y-119135000D01*
X80145000Y-108195000D02*
X79210000Y-108195000D01*
X80780000Y-77715000D02*
X80780000Y-78985000D01*
X88130000Y-77715000D02*
X88130000Y-78985000D01*
X88130000Y-84845000D02*
X88130000Y-83575000D01*
X80780000Y-84845000D02*
X80780000Y-83575000D01*
X80780000Y-77715000D02*
X88130000Y-77715000D01*
X80780000Y-84845000D02*
X88130000Y-84845000D01*
X80780000Y-78985000D02*
X79845000Y-78985000D01*
X104910000Y-106925000D02*
X104910000Y-108195000D01*
X112260000Y-106925000D02*
X112260000Y-108195000D01*
X112260000Y-119135000D02*
X112260000Y-117865000D01*
X104910000Y-119135000D02*
X104910000Y-117865000D01*
X104910000Y-106925000D02*
X112260000Y-106925000D01*
X104910000Y-119135000D02*
X112260000Y-119135000D01*
X104910000Y-108195000D02*
X103975000Y-108195000D01*
X105545000Y-77715000D02*
X105545000Y-78985000D01*
X112895000Y-77715000D02*
X112895000Y-78985000D01*
X112895000Y-84845000D02*
X112895000Y-83575000D01*
X105545000Y-84845000D02*
X105545000Y-83575000D01*
X105545000Y-77715000D02*
X112895000Y-77715000D01*
X105545000Y-84845000D02*
X112895000Y-84845000D01*
X105545000Y-78985000D02*
X104610000Y-78985000D01*
X129675000Y-106925000D02*
X129675000Y-108195000D01*
X137025000Y-106925000D02*
X137025000Y-108195000D01*
X137025000Y-119135000D02*
X137025000Y-117865000D01*
X129675000Y-119135000D02*
X129675000Y-117865000D01*
X129675000Y-106925000D02*
X137025000Y-106925000D01*
X129675000Y-119135000D02*
X137025000Y-119135000D01*
X129675000Y-108195000D02*
X128740000Y-108195000D01*
X130310000Y-77715000D02*
X130310000Y-78985000D01*
X137660000Y-77715000D02*
X137660000Y-78985000D01*
X137660000Y-84845000D02*
X137660000Y-83575000D01*
X130310000Y-84845000D02*
X130310000Y-83575000D01*
X130310000Y-77715000D02*
X137660000Y-77715000D01*
X130310000Y-84845000D02*
X137660000Y-84845000D01*
X130310000Y-78985000D02*
X129375000Y-78985000D01*
X154440000Y-106925000D02*
X154440000Y-108195000D01*
X161790000Y-106925000D02*
X161790000Y-108195000D01*
X161790000Y-119135000D02*
X161790000Y-117865000D01*
X154440000Y-119135000D02*
X154440000Y-117865000D01*
X154440000Y-106925000D02*
X161790000Y-106925000D01*
X154440000Y-119135000D02*
X161790000Y-119135000D01*
X154440000Y-108195000D02*
X153505000Y-108195000D01*
X155075000Y-77715000D02*
X155075000Y-78985000D01*
X162425000Y-77715000D02*
X162425000Y-78985000D01*
X162425000Y-84845000D02*
X162425000Y-83575000D01*
X155075000Y-84845000D02*
X155075000Y-83575000D01*
X155075000Y-77715000D02*
X162425000Y-77715000D01*
X155075000Y-84845000D02*
X162425000Y-84845000D01*
X155075000Y-78985000D02*
X154140000Y-78985000D01*
X193014472Y-97536000D02*
G75*
G03X193014472Y-97536000I-2514472J0D01*
G01*
X187960000Y-110617000D02*
X187960000Y-112395000D01*
X190500000Y-110617000D02*
X190500000Y-112395000D01*
X193040000Y-110617000D02*
X193040000Y-112395000D01*
X195834000Y-102108000D02*
X195834000Y-94107000D01*
X195834000Y-94107000D02*
X185166000Y-94107000D01*
X185166000Y-94107000D02*
X185166000Y-102108000D01*
X195834000Y-110617000D02*
X195834000Y-102108000D01*
X195834000Y-102108000D02*
X185166000Y-102108000D01*
X185166000Y-102108000D02*
X185166000Y-110617000D01*
X190500000Y-110617000D02*
X185166000Y-110617000D01*
X190500000Y-110617000D02*
X195834000Y-110617000D01*
X69850000Y-88900000D02*
X74930000Y-88900000D01*
X74930000Y-88900000D02*
X74930000Y-91440000D01*
X74930000Y-91440000D02*
X69850000Y-91440000D01*
X69850000Y-91440000D02*
X69850000Y-88900000D01*
X69850000Y-90170000D02*
X68580000Y-90170000D01*
X74930000Y-90170000D02*
X76200000Y-90170000D01*
X94615000Y-88900000D02*
X99695000Y-88900000D01*
X99695000Y-88900000D02*
X99695000Y-91440000D01*
X99695000Y-91440000D02*
X94615000Y-91440000D01*
X94615000Y-91440000D02*
X94615000Y-88900000D01*
X94615000Y-90170000D02*
X93345000Y-90170000D01*
X99695000Y-90170000D02*
X100965000Y-90170000D01*
X119380000Y-88900000D02*
X124460000Y-88900000D01*
X124460000Y-88900000D02*
X124460000Y-91440000D01*
X124460000Y-91440000D02*
X119380000Y-91440000D01*
X119380000Y-91440000D02*
X119380000Y-88900000D01*
X119380000Y-90170000D02*
X118110000Y-90170000D01*
X124460000Y-90170000D02*
X125730000Y-90170000D01*
X144145000Y-88900000D02*
X149225000Y-88900000D01*
X149225000Y-88900000D02*
X149225000Y-91440000D01*
X149225000Y-91440000D02*
X144145000Y-91440000D01*
X144145000Y-91440000D02*
X144145000Y-88900000D01*
X144145000Y-90170000D02*
X142875000Y-90170000D01*
X149225000Y-90170000D02*
X150495000Y-90170000D01*
X67056000Y-74295000D02*
G75*
G03X67056000Y-74295000I-2286000J0D01*
G01*
X67056000Y-123825000D02*
G75*
G03X67056000Y-123825000I-2286000J0D01*
G01*
X205486000Y-74295000D02*
G75*
G03X205486000Y-74295000I-2286000J0D01*
G01*
X205486000Y-123825000D02*
G75*
G03X205486000Y-123825000I-2286000J0D01*
G01*
X145796000Y-96520000D02*
G75*
G03X145796000Y-96520000I-2286000J0D01*
G01*
X166203334Y-114022143D02*
X166155715Y-114069762D01*
X166012858Y-114117381D01*
X165917620Y-114117381D01*
X165774762Y-114069762D01*
X165679524Y-113974524D01*
X165631905Y-113879286D01*
X165584286Y-113688810D01*
X165584286Y-113545952D01*
X165631905Y-113355476D01*
X165679524Y-113260238D01*
X165774762Y-113165000D01*
X165917620Y-113117381D01*
X166012858Y-113117381D01*
X166155715Y-113165000D01*
X166203334Y-113212619D01*
X167155715Y-114117381D02*
X166584286Y-114117381D01*
X166870000Y-114117381D02*
X166870000Y-113117381D01*
X166774762Y-113260238D01*
X166679524Y-113355476D01*
X166584286Y-113403095D01*
X172553334Y-110847143D02*
X172505715Y-110894762D01*
X172362858Y-110942381D01*
X172267620Y-110942381D01*
X172124762Y-110894762D01*
X172029524Y-110799524D01*
X171981905Y-110704286D01*
X171934286Y-110513810D01*
X171934286Y-110370952D01*
X171981905Y-110180476D01*
X172029524Y-110085238D01*
X172124762Y-109990000D01*
X172267620Y-109942381D01*
X172362858Y-109942381D01*
X172505715Y-109990000D01*
X172553334Y-110037619D01*
X172934286Y-110037619D02*
X172981905Y-109990000D01*
X173077143Y-109942381D01*
X173315239Y-109942381D01*
X173410477Y-109990000D01*
X173458096Y-110037619D01*
X173505715Y-110132857D01*
X173505715Y-110228095D01*
X173458096Y-110370952D01*
X172886667Y-110942381D01*
X173505715Y-110942381D01*
X173823334Y-100687143D02*
X173775715Y-100734762D01*
X173632858Y-100782381D01*
X173537620Y-100782381D01*
X173394762Y-100734762D01*
X173299524Y-100639524D01*
X173251905Y-100544286D01*
X173204286Y-100353810D01*
X173204286Y-100210952D01*
X173251905Y-100020476D01*
X173299524Y-99925238D01*
X173394762Y-99830000D01*
X173537620Y-99782381D01*
X173632858Y-99782381D01*
X173775715Y-99830000D01*
X173823334Y-99877619D01*
X174156667Y-99782381D02*
X174775715Y-99782381D01*
X174442381Y-100163333D01*
X174585239Y-100163333D01*
X174680477Y-100210952D01*
X174728096Y-100258571D01*
X174775715Y-100353810D01*
X174775715Y-100591905D01*
X174728096Y-100687143D01*
X174680477Y-100734762D01*
X174585239Y-100782381D01*
X174299524Y-100782381D01*
X174204286Y-100734762D01*
X174156667Y-100687143D01*
X178923334Y-109567143D02*
X178875715Y-109614762D01*
X178732858Y-109662381D01*
X178637620Y-109662381D01*
X178494762Y-109614762D01*
X178399524Y-109519524D01*
X178351905Y-109424286D01*
X178304286Y-109233810D01*
X178304286Y-109090952D01*
X178351905Y-108900476D01*
X178399524Y-108805238D01*
X178494762Y-108710000D01*
X178637620Y-108662381D01*
X178732858Y-108662381D01*
X178875715Y-108710000D01*
X178923334Y-108757619D01*
X179780477Y-108995714D02*
X179780477Y-109662381D01*
X179542381Y-108614762D02*
X179304286Y-109329048D01*
X179923334Y-109329048D01*
X69746905Y-99512381D02*
X69746905Y-98512381D01*
X69985000Y-98512381D01*
X70127858Y-98560000D01*
X70223096Y-98655238D01*
X70270715Y-98750476D01*
X70318334Y-98940952D01*
X70318334Y-99083810D01*
X70270715Y-99274286D01*
X70223096Y-99369524D01*
X70127858Y-99464762D01*
X69985000Y-99512381D01*
X69746905Y-99512381D01*
X71270715Y-99512381D02*
X70699286Y-99512381D01*
X70985000Y-99512381D02*
X70985000Y-98512381D01*
X70889762Y-98655238D01*
X70794524Y-98750476D01*
X70699286Y-98798095D01*
X94511905Y-99512381D02*
X94511905Y-98512381D01*
X94750000Y-98512381D01*
X94892858Y-98560000D01*
X94988096Y-98655238D01*
X95035715Y-98750476D01*
X95083334Y-98940952D01*
X95083334Y-99083810D01*
X95035715Y-99274286D01*
X94988096Y-99369524D01*
X94892858Y-99464762D01*
X94750000Y-99512381D01*
X94511905Y-99512381D01*
X95464286Y-98607619D02*
X95511905Y-98560000D01*
X95607143Y-98512381D01*
X95845239Y-98512381D01*
X95940477Y-98560000D01*
X95988096Y-98607619D01*
X96035715Y-98702857D01*
X96035715Y-98798095D01*
X95988096Y-98940952D01*
X95416667Y-99512381D01*
X96035715Y-99512381D01*
X119276905Y-99512381D02*
X119276905Y-98512381D01*
X119515000Y-98512381D01*
X119657858Y-98560000D01*
X119753096Y-98655238D01*
X119800715Y-98750476D01*
X119848334Y-98940952D01*
X119848334Y-99083810D01*
X119800715Y-99274286D01*
X119753096Y-99369524D01*
X119657858Y-99464762D01*
X119515000Y-99512381D01*
X119276905Y-99512381D01*
X120181667Y-98512381D02*
X120800715Y-98512381D01*
X120467381Y-98893333D01*
X120610239Y-98893333D01*
X120705477Y-98940952D01*
X120753096Y-98988571D01*
X120800715Y-99083810D01*
X120800715Y-99321905D01*
X120753096Y-99417143D01*
X120705477Y-99464762D01*
X120610239Y-99512381D01*
X120324524Y-99512381D01*
X120229286Y-99464762D01*
X120181667Y-99417143D01*
X141501905Y-102052381D02*
X141501905Y-101052381D01*
X141740000Y-101052381D01*
X141882858Y-101100000D01*
X141978096Y-101195238D01*
X142025715Y-101290476D01*
X142073334Y-101480952D01*
X142073334Y-101623810D01*
X142025715Y-101814286D01*
X141978096Y-101909524D01*
X141882858Y-102004762D01*
X141740000Y-102052381D01*
X141501905Y-102052381D01*
X142930477Y-101385714D02*
X142930477Y-102052381D01*
X142692381Y-101004762D02*
X142454286Y-101719048D01*
X143073334Y-101719048D01*
X192706667Y-75652381D02*
X192706667Y-76366667D01*
X192659047Y-76509524D01*
X192563809Y-76604762D01*
X192420952Y-76652381D01*
X192325714Y-76652381D01*
X193706667Y-76652381D02*
X193135238Y-76652381D01*
X193420952Y-76652381D02*
X193420952Y-75652381D01*
X193325714Y-75795238D01*
X193230476Y-75890476D01*
X193135238Y-75938095D01*
X178776667Y-74832381D02*
X178776667Y-75546667D01*
X178729047Y-75689524D01*
X178633809Y-75784762D01*
X178490952Y-75832381D01*
X178395714Y-75832381D01*
X179205238Y-74927619D02*
X179252857Y-74880000D01*
X179348095Y-74832381D01*
X179586191Y-74832381D01*
X179681429Y-74880000D01*
X179729048Y-74927619D01*
X179776667Y-75022857D01*
X179776667Y-75118095D01*
X179729048Y-75260952D01*
X179157619Y-75832381D01*
X179776667Y-75832381D01*
X178974762Y-112307619D02*
X178879524Y-112260000D01*
X178784286Y-112164762D01*
X178641429Y-112021905D01*
X178546190Y-111974286D01*
X178450952Y-111974286D01*
X178498571Y-112212381D02*
X178403333Y-112164762D01*
X178308095Y-112069524D01*
X178260476Y-111879048D01*
X178260476Y-111545714D01*
X178308095Y-111355238D01*
X178403333Y-111260000D01*
X178498571Y-111212381D01*
X178689048Y-111212381D01*
X178784286Y-111260000D01*
X178879524Y-111355238D01*
X178927143Y-111545714D01*
X178927143Y-111879048D01*
X178879524Y-112069524D01*
X178784286Y-112164762D01*
X178689048Y-112212381D01*
X178498571Y-112212381D01*
X179308095Y-111307619D02*
X179355714Y-111260000D01*
X179450952Y-111212381D01*
X179689048Y-111212381D01*
X179784286Y-111260000D01*
X179831905Y-111307619D01*
X179879524Y-111402857D01*
X179879524Y-111498095D01*
X179831905Y-111640952D01*
X179260476Y-112212381D01*
X179879524Y-112212381D01*
X82454762Y-88177619D02*
X82359524Y-88130000D01*
X82264286Y-88034762D01*
X82121429Y-87891905D01*
X82026190Y-87844286D01*
X81930952Y-87844286D01*
X81978571Y-88082381D02*
X81883333Y-88034762D01*
X81788095Y-87939524D01*
X81740476Y-87749048D01*
X81740476Y-87415714D01*
X81788095Y-87225238D01*
X81883333Y-87130000D01*
X81978571Y-87082381D01*
X82169048Y-87082381D01*
X82264286Y-87130000D01*
X82359524Y-87225238D01*
X82407143Y-87415714D01*
X82407143Y-87749048D01*
X82359524Y-87939524D01*
X82264286Y-88034762D01*
X82169048Y-88082381D01*
X81978571Y-88082381D01*
X82740476Y-87082381D02*
X83359524Y-87082381D01*
X83026190Y-87463333D01*
X83169048Y-87463333D01*
X83264286Y-87510952D01*
X83311905Y-87558571D01*
X83359524Y-87653810D01*
X83359524Y-87891905D01*
X83311905Y-87987143D01*
X83264286Y-88034762D01*
X83169048Y-88082381D01*
X82883333Y-88082381D01*
X82788095Y-88034762D01*
X82740476Y-87987143D01*
X107219762Y-88177619D02*
X107124524Y-88130000D01*
X107029286Y-88034762D01*
X106886429Y-87891905D01*
X106791190Y-87844286D01*
X106695952Y-87844286D01*
X106743571Y-88082381D02*
X106648333Y-88034762D01*
X106553095Y-87939524D01*
X106505476Y-87749048D01*
X106505476Y-87415714D01*
X106553095Y-87225238D01*
X106648333Y-87130000D01*
X106743571Y-87082381D01*
X106934048Y-87082381D01*
X107029286Y-87130000D01*
X107124524Y-87225238D01*
X107172143Y-87415714D01*
X107172143Y-87749048D01*
X107124524Y-87939524D01*
X107029286Y-88034762D01*
X106934048Y-88082381D01*
X106743571Y-88082381D01*
X108029286Y-87415714D02*
X108029286Y-88082381D01*
X107791190Y-87034762D02*
X107553095Y-87749048D01*
X108172143Y-87749048D01*
X131984762Y-88177619D02*
X131889524Y-88130000D01*
X131794286Y-88034762D01*
X131651429Y-87891905D01*
X131556190Y-87844286D01*
X131460952Y-87844286D01*
X131508571Y-88082381D02*
X131413333Y-88034762D01*
X131318095Y-87939524D01*
X131270476Y-87749048D01*
X131270476Y-87415714D01*
X131318095Y-87225238D01*
X131413333Y-87130000D01*
X131508571Y-87082381D01*
X131699048Y-87082381D01*
X131794286Y-87130000D01*
X131889524Y-87225238D01*
X131937143Y-87415714D01*
X131937143Y-87749048D01*
X131889524Y-87939524D01*
X131794286Y-88034762D01*
X131699048Y-88082381D01*
X131508571Y-88082381D01*
X132841905Y-87082381D02*
X132365714Y-87082381D01*
X132318095Y-87558571D01*
X132365714Y-87510952D01*
X132460952Y-87463333D01*
X132699048Y-87463333D01*
X132794286Y-87510952D01*
X132841905Y-87558571D01*
X132889524Y-87653810D01*
X132889524Y-87891905D01*
X132841905Y-87987143D01*
X132794286Y-88034762D01*
X132699048Y-88082381D01*
X132460952Y-88082381D01*
X132365714Y-88034762D01*
X132318095Y-87987143D01*
X156749762Y-88177619D02*
X156654524Y-88130000D01*
X156559286Y-88034762D01*
X156416429Y-87891905D01*
X156321190Y-87844286D01*
X156225952Y-87844286D01*
X156273571Y-88082381D02*
X156178333Y-88034762D01*
X156083095Y-87939524D01*
X156035476Y-87749048D01*
X156035476Y-87415714D01*
X156083095Y-87225238D01*
X156178333Y-87130000D01*
X156273571Y-87082381D01*
X156464048Y-87082381D01*
X156559286Y-87130000D01*
X156654524Y-87225238D01*
X156702143Y-87415714D01*
X156702143Y-87749048D01*
X156654524Y-87939524D01*
X156559286Y-88034762D01*
X156464048Y-88082381D01*
X156273571Y-88082381D01*
X157559286Y-87082381D02*
X157368809Y-87082381D01*
X157273571Y-87130000D01*
X157225952Y-87177619D01*
X157130714Y-87320476D01*
X157083095Y-87510952D01*
X157083095Y-87891905D01*
X157130714Y-87987143D01*
X157178333Y-88034762D01*
X157273571Y-88082381D01*
X157464048Y-88082381D01*
X157559286Y-88034762D01*
X157606905Y-87987143D01*
X157654524Y-87891905D01*
X157654524Y-87653810D01*
X157606905Y-87558571D01*
X157559286Y-87510952D01*
X157464048Y-87463333D01*
X157273571Y-87463333D01*
X157178333Y-87510952D01*
X157130714Y-87558571D01*
X157083095Y-87653810D01*
X72858334Y-96972381D02*
X72525000Y-96496190D01*
X72286905Y-96972381D02*
X72286905Y-95972381D01*
X72667858Y-95972381D01*
X72763096Y-96020000D01*
X72810715Y-96067619D01*
X72858334Y-96162857D01*
X72858334Y-96305714D01*
X72810715Y-96400952D01*
X72763096Y-96448571D01*
X72667858Y-96496190D01*
X72286905Y-96496190D01*
X73810715Y-96972381D02*
X73239286Y-96972381D01*
X73525000Y-96972381D02*
X73525000Y-95972381D01*
X73429762Y-96115238D01*
X73334524Y-96210476D01*
X73239286Y-96258095D01*
X70953334Y-121102381D02*
X70620000Y-120626190D01*
X70381905Y-121102381D02*
X70381905Y-120102381D01*
X70762858Y-120102381D01*
X70858096Y-120150000D01*
X70905715Y-120197619D01*
X70953334Y-120292857D01*
X70953334Y-120435714D01*
X70905715Y-120530952D01*
X70858096Y-120578571D01*
X70762858Y-120626190D01*
X70381905Y-120626190D01*
X71286667Y-120102381D02*
X71905715Y-120102381D01*
X71572381Y-120483333D01*
X71715239Y-120483333D01*
X71810477Y-120530952D01*
X71858096Y-120578571D01*
X71905715Y-120673810D01*
X71905715Y-120911905D01*
X71858096Y-121007143D01*
X71810477Y-121054762D01*
X71715239Y-121102381D01*
X71429524Y-121102381D01*
X71334286Y-121054762D01*
X71286667Y-121007143D01*
X79208334Y-93797381D02*
X78875000Y-93321190D01*
X78636905Y-93797381D02*
X78636905Y-92797381D01*
X79017858Y-92797381D01*
X79113096Y-92845000D01*
X79160715Y-92892619D01*
X79208334Y-92987857D01*
X79208334Y-93130714D01*
X79160715Y-93225952D01*
X79113096Y-93273571D01*
X79017858Y-93321190D01*
X78636905Y-93321190D01*
X80065477Y-93130714D02*
X80065477Y-93797381D01*
X79827381Y-92749762D02*
X79589286Y-93464048D01*
X80208334Y-93464048D01*
X69683334Y-83002381D02*
X69350000Y-82526190D01*
X69111905Y-83002381D02*
X69111905Y-82002381D01*
X69492858Y-82002381D01*
X69588096Y-82050000D01*
X69635715Y-82097619D01*
X69683334Y-82192857D01*
X69683334Y-82335714D01*
X69635715Y-82430952D01*
X69588096Y-82478571D01*
X69492858Y-82526190D01*
X69111905Y-82526190D01*
X70588096Y-82002381D02*
X70111905Y-82002381D01*
X70064286Y-82478571D01*
X70111905Y-82430952D01*
X70207143Y-82383333D01*
X70445239Y-82383333D01*
X70540477Y-82430952D01*
X70588096Y-82478571D01*
X70635715Y-82573810D01*
X70635715Y-82811905D01*
X70588096Y-82907143D01*
X70540477Y-82954762D01*
X70445239Y-83002381D01*
X70207143Y-83002381D01*
X70111905Y-82954762D01*
X70064286Y-82907143D01*
X83653334Y-95702381D02*
X83320000Y-95226190D01*
X83081905Y-95702381D02*
X83081905Y-94702381D01*
X83462858Y-94702381D01*
X83558096Y-94750000D01*
X83605715Y-94797619D01*
X83653334Y-94892857D01*
X83653334Y-95035714D01*
X83605715Y-95130952D01*
X83558096Y-95178571D01*
X83462858Y-95226190D01*
X83081905Y-95226190D01*
X84510477Y-94702381D02*
X84320000Y-94702381D01*
X84224762Y-94750000D01*
X84177143Y-94797619D01*
X84081905Y-94940476D01*
X84034286Y-95130952D01*
X84034286Y-95511905D01*
X84081905Y-95607143D01*
X84129524Y-95654762D01*
X84224762Y-95702381D01*
X84415239Y-95702381D01*
X84510477Y-95654762D01*
X84558096Y-95607143D01*
X84605715Y-95511905D01*
X84605715Y-95273810D01*
X84558096Y-95178571D01*
X84510477Y-95130952D01*
X84415239Y-95083333D01*
X84224762Y-95083333D01*
X84129524Y-95130952D01*
X84081905Y-95178571D01*
X84034286Y-95273810D01*
X69683334Y-77922381D02*
X69350000Y-77446190D01*
X69111905Y-77922381D02*
X69111905Y-76922381D01*
X69492858Y-76922381D01*
X69588096Y-76970000D01*
X69635715Y-77017619D01*
X69683334Y-77112857D01*
X69683334Y-77255714D01*
X69635715Y-77350952D01*
X69588096Y-77398571D01*
X69492858Y-77446190D01*
X69111905Y-77446190D01*
X70016667Y-76922381D02*
X70683334Y-76922381D01*
X70254762Y-77922381D01*
X97623334Y-96972381D02*
X97290000Y-96496190D01*
X97051905Y-96972381D02*
X97051905Y-95972381D01*
X97432858Y-95972381D01*
X97528096Y-96020000D01*
X97575715Y-96067619D01*
X97623334Y-96162857D01*
X97623334Y-96305714D01*
X97575715Y-96400952D01*
X97528096Y-96448571D01*
X97432858Y-96496190D01*
X97051905Y-96496190D01*
X98194762Y-96400952D02*
X98099524Y-96353333D01*
X98051905Y-96305714D01*
X98004286Y-96210476D01*
X98004286Y-96162857D01*
X98051905Y-96067619D01*
X98099524Y-96020000D01*
X98194762Y-95972381D01*
X98385239Y-95972381D01*
X98480477Y-96020000D01*
X98528096Y-96067619D01*
X98575715Y-96162857D01*
X98575715Y-96210476D01*
X98528096Y-96305714D01*
X98480477Y-96353333D01*
X98385239Y-96400952D01*
X98194762Y-96400952D01*
X98099524Y-96448571D01*
X98051905Y-96496190D01*
X98004286Y-96591429D01*
X98004286Y-96781905D01*
X98051905Y-96877143D01*
X98099524Y-96924762D01*
X98194762Y-96972381D01*
X98385239Y-96972381D01*
X98480477Y-96924762D01*
X98528096Y-96877143D01*
X98575715Y-96781905D01*
X98575715Y-96591429D01*
X98528096Y-96496190D01*
X98480477Y-96448571D01*
X98385239Y-96400952D01*
X95242143Y-121102381D02*
X94908809Y-120626190D01*
X94670714Y-121102381D02*
X94670714Y-120102381D01*
X95051667Y-120102381D01*
X95146905Y-120150000D01*
X95194524Y-120197619D01*
X95242143Y-120292857D01*
X95242143Y-120435714D01*
X95194524Y-120530952D01*
X95146905Y-120578571D01*
X95051667Y-120626190D01*
X94670714Y-120626190D01*
X96194524Y-121102381D02*
X95623095Y-121102381D01*
X95908809Y-121102381D02*
X95908809Y-120102381D01*
X95813571Y-120245238D01*
X95718333Y-120340476D01*
X95623095Y-120388095D01*
X96813571Y-120102381D02*
X96908810Y-120102381D01*
X97004048Y-120150000D01*
X97051667Y-120197619D01*
X97099286Y-120292857D01*
X97146905Y-120483333D01*
X97146905Y-120721429D01*
X97099286Y-120911905D01*
X97051667Y-121007143D01*
X97004048Y-121054762D01*
X96908810Y-121102381D01*
X96813571Y-121102381D01*
X96718333Y-121054762D01*
X96670714Y-121007143D01*
X96623095Y-120911905D01*
X96575476Y-120721429D01*
X96575476Y-120483333D01*
X96623095Y-120292857D01*
X96670714Y-120197619D01*
X96718333Y-120150000D01*
X96813571Y-120102381D01*
X102862143Y-93797381D02*
X102528809Y-93321190D01*
X102290714Y-93797381D02*
X102290714Y-92797381D01*
X102671667Y-92797381D01*
X102766905Y-92845000D01*
X102814524Y-92892619D01*
X102862143Y-92987857D01*
X102862143Y-93130714D01*
X102814524Y-93225952D01*
X102766905Y-93273571D01*
X102671667Y-93321190D01*
X102290714Y-93321190D01*
X103814524Y-93797381D02*
X103243095Y-93797381D01*
X103528809Y-93797381D02*
X103528809Y-92797381D01*
X103433571Y-92940238D01*
X103338333Y-93035476D01*
X103243095Y-93083095D01*
X104766905Y-93797381D02*
X104195476Y-93797381D01*
X104481190Y-93797381D02*
X104481190Y-92797381D01*
X104385952Y-92940238D01*
X104290714Y-93035476D01*
X104195476Y-93083095D01*
X93972143Y-83002381D02*
X93638809Y-82526190D01*
X93400714Y-83002381D02*
X93400714Y-82002381D01*
X93781667Y-82002381D01*
X93876905Y-82050000D01*
X93924524Y-82097619D01*
X93972143Y-82192857D01*
X93972143Y-82335714D01*
X93924524Y-82430952D01*
X93876905Y-82478571D01*
X93781667Y-82526190D01*
X93400714Y-82526190D01*
X94924524Y-83002381D02*
X94353095Y-83002381D01*
X94638809Y-83002381D02*
X94638809Y-82002381D01*
X94543571Y-82145238D01*
X94448333Y-82240476D01*
X94353095Y-82288095D01*
X95305476Y-82097619D02*
X95353095Y-82050000D01*
X95448333Y-82002381D01*
X95686429Y-82002381D01*
X95781667Y-82050000D01*
X95829286Y-82097619D01*
X95876905Y-82192857D01*
X95876905Y-82288095D01*
X95829286Y-82430952D01*
X95257857Y-83002381D01*
X95876905Y-83002381D01*
X107942143Y-95702381D02*
X107608809Y-95226190D01*
X107370714Y-95702381D02*
X107370714Y-94702381D01*
X107751667Y-94702381D01*
X107846905Y-94750000D01*
X107894524Y-94797619D01*
X107942143Y-94892857D01*
X107942143Y-95035714D01*
X107894524Y-95130952D01*
X107846905Y-95178571D01*
X107751667Y-95226190D01*
X107370714Y-95226190D01*
X108894524Y-95702381D02*
X108323095Y-95702381D01*
X108608809Y-95702381D02*
X108608809Y-94702381D01*
X108513571Y-94845238D01*
X108418333Y-94940476D01*
X108323095Y-94988095D01*
X109227857Y-94702381D02*
X109846905Y-94702381D01*
X109513571Y-95083333D01*
X109656429Y-95083333D01*
X109751667Y-95130952D01*
X109799286Y-95178571D01*
X109846905Y-95273810D01*
X109846905Y-95511905D01*
X109799286Y-95607143D01*
X109751667Y-95654762D01*
X109656429Y-95702381D01*
X109370714Y-95702381D01*
X109275476Y-95654762D01*
X109227857Y-95607143D01*
X93972143Y-77922381D02*
X93638809Y-77446190D01*
X93400714Y-77922381D02*
X93400714Y-76922381D01*
X93781667Y-76922381D01*
X93876905Y-76970000D01*
X93924524Y-77017619D01*
X93972143Y-77112857D01*
X93972143Y-77255714D01*
X93924524Y-77350952D01*
X93876905Y-77398571D01*
X93781667Y-77446190D01*
X93400714Y-77446190D01*
X94924524Y-77922381D02*
X94353095Y-77922381D01*
X94638809Y-77922381D02*
X94638809Y-76922381D01*
X94543571Y-77065238D01*
X94448333Y-77160476D01*
X94353095Y-77208095D01*
X95781667Y-77255714D02*
X95781667Y-77922381D01*
X95543571Y-76874762D02*
X95305476Y-77589048D01*
X95924524Y-77589048D01*
X121277143Y-96972381D02*
X120943809Y-96496190D01*
X120705714Y-96972381D02*
X120705714Y-95972381D01*
X121086667Y-95972381D01*
X121181905Y-96020000D01*
X121229524Y-96067619D01*
X121277143Y-96162857D01*
X121277143Y-96305714D01*
X121229524Y-96400952D01*
X121181905Y-96448571D01*
X121086667Y-96496190D01*
X120705714Y-96496190D01*
X122229524Y-96972381D02*
X121658095Y-96972381D01*
X121943809Y-96972381D02*
X121943809Y-95972381D01*
X121848571Y-96115238D01*
X121753333Y-96210476D01*
X121658095Y-96258095D01*
X123134286Y-95972381D02*
X122658095Y-95972381D01*
X122610476Y-96448571D01*
X122658095Y-96400952D01*
X122753333Y-96353333D01*
X122991429Y-96353333D01*
X123086667Y-96400952D01*
X123134286Y-96448571D01*
X123181905Y-96543810D01*
X123181905Y-96781905D01*
X123134286Y-96877143D01*
X123086667Y-96924762D01*
X122991429Y-96972381D01*
X122753333Y-96972381D01*
X122658095Y-96924762D01*
X122610476Y-96877143D01*
X120007143Y-121102381D02*
X119673809Y-120626190D01*
X119435714Y-121102381D02*
X119435714Y-120102381D01*
X119816667Y-120102381D01*
X119911905Y-120150000D01*
X119959524Y-120197619D01*
X120007143Y-120292857D01*
X120007143Y-120435714D01*
X119959524Y-120530952D01*
X119911905Y-120578571D01*
X119816667Y-120626190D01*
X119435714Y-120626190D01*
X120959524Y-121102381D02*
X120388095Y-121102381D01*
X120673809Y-121102381D02*
X120673809Y-120102381D01*
X120578571Y-120245238D01*
X120483333Y-120340476D01*
X120388095Y-120388095D01*
X121292857Y-120102381D02*
X121959524Y-120102381D01*
X121530952Y-121102381D01*
X127627143Y-93797381D02*
X127293809Y-93321190D01*
X127055714Y-93797381D02*
X127055714Y-92797381D01*
X127436667Y-92797381D01*
X127531905Y-92845000D01*
X127579524Y-92892619D01*
X127627143Y-92987857D01*
X127627143Y-93130714D01*
X127579524Y-93225952D01*
X127531905Y-93273571D01*
X127436667Y-93321190D01*
X127055714Y-93321190D01*
X128579524Y-93797381D02*
X128008095Y-93797381D01*
X128293809Y-93797381D02*
X128293809Y-92797381D01*
X128198571Y-92940238D01*
X128103333Y-93035476D01*
X128008095Y-93083095D01*
X129150952Y-93225952D02*
X129055714Y-93178333D01*
X129008095Y-93130714D01*
X128960476Y-93035476D01*
X128960476Y-92987857D01*
X129008095Y-92892619D01*
X129055714Y-92845000D01*
X129150952Y-92797381D01*
X129341429Y-92797381D01*
X129436667Y-92845000D01*
X129484286Y-92892619D01*
X129531905Y-92987857D01*
X129531905Y-93035476D01*
X129484286Y-93130714D01*
X129436667Y-93178333D01*
X129341429Y-93225952D01*
X129150952Y-93225952D01*
X129055714Y-93273571D01*
X129008095Y-93321190D01*
X128960476Y-93416429D01*
X128960476Y-93606905D01*
X129008095Y-93702143D01*
X129055714Y-93749762D01*
X129150952Y-93797381D01*
X129341429Y-93797381D01*
X129436667Y-93749762D01*
X129484286Y-93702143D01*
X129531905Y-93606905D01*
X129531905Y-93416429D01*
X129484286Y-93321190D01*
X129436667Y-93273571D01*
X129341429Y-93225952D01*
X118737143Y-83002381D02*
X118403809Y-82526190D01*
X118165714Y-83002381D02*
X118165714Y-82002381D01*
X118546667Y-82002381D01*
X118641905Y-82050000D01*
X118689524Y-82097619D01*
X118737143Y-82192857D01*
X118737143Y-82335714D01*
X118689524Y-82430952D01*
X118641905Y-82478571D01*
X118546667Y-82526190D01*
X118165714Y-82526190D01*
X119689524Y-83002381D02*
X119118095Y-83002381D01*
X119403809Y-83002381D02*
X119403809Y-82002381D01*
X119308571Y-82145238D01*
X119213333Y-82240476D01*
X119118095Y-82288095D01*
X120165714Y-83002381D02*
X120356190Y-83002381D01*
X120451429Y-82954762D01*
X120499048Y-82907143D01*
X120594286Y-82764286D01*
X120641905Y-82573810D01*
X120641905Y-82192857D01*
X120594286Y-82097619D01*
X120546667Y-82050000D01*
X120451429Y-82002381D01*
X120260952Y-82002381D01*
X120165714Y-82050000D01*
X120118095Y-82097619D01*
X120070476Y-82192857D01*
X120070476Y-82430952D01*
X120118095Y-82526190D01*
X120165714Y-82573810D01*
X120260952Y-82621429D01*
X120451429Y-82621429D01*
X120546667Y-82573810D01*
X120594286Y-82526190D01*
X120641905Y-82430952D01*
X132707143Y-95702381D02*
X132373809Y-95226190D01*
X132135714Y-95702381D02*
X132135714Y-94702381D01*
X132516667Y-94702381D01*
X132611905Y-94750000D01*
X132659524Y-94797619D01*
X132707143Y-94892857D01*
X132707143Y-95035714D01*
X132659524Y-95130952D01*
X132611905Y-95178571D01*
X132516667Y-95226190D01*
X132135714Y-95226190D01*
X133088095Y-94797619D02*
X133135714Y-94750000D01*
X133230952Y-94702381D01*
X133469048Y-94702381D01*
X133564286Y-94750000D01*
X133611905Y-94797619D01*
X133659524Y-94892857D01*
X133659524Y-94988095D01*
X133611905Y-95130952D01*
X133040476Y-95702381D01*
X133659524Y-95702381D01*
X134278571Y-94702381D02*
X134373810Y-94702381D01*
X134469048Y-94750000D01*
X134516667Y-94797619D01*
X134564286Y-94892857D01*
X134611905Y-95083333D01*
X134611905Y-95321429D01*
X134564286Y-95511905D01*
X134516667Y-95607143D01*
X134469048Y-95654762D01*
X134373810Y-95702381D01*
X134278571Y-95702381D01*
X134183333Y-95654762D01*
X134135714Y-95607143D01*
X134088095Y-95511905D01*
X134040476Y-95321429D01*
X134040476Y-95083333D01*
X134088095Y-94892857D01*
X134135714Y-94797619D01*
X134183333Y-94750000D01*
X134278571Y-94702381D01*
X118737143Y-77922381D02*
X118403809Y-77446190D01*
X118165714Y-77922381D02*
X118165714Y-76922381D01*
X118546667Y-76922381D01*
X118641905Y-76970000D01*
X118689524Y-77017619D01*
X118737143Y-77112857D01*
X118737143Y-77255714D01*
X118689524Y-77350952D01*
X118641905Y-77398571D01*
X118546667Y-77446190D01*
X118165714Y-77446190D01*
X119118095Y-77017619D02*
X119165714Y-76970000D01*
X119260952Y-76922381D01*
X119499048Y-76922381D01*
X119594286Y-76970000D01*
X119641905Y-77017619D01*
X119689524Y-77112857D01*
X119689524Y-77208095D01*
X119641905Y-77350952D01*
X119070476Y-77922381D01*
X119689524Y-77922381D01*
X120641905Y-77922381D02*
X120070476Y-77922381D01*
X120356190Y-77922381D02*
X120356190Y-76922381D01*
X120260952Y-77065238D01*
X120165714Y-77160476D01*
X120070476Y-77208095D01*
X151757143Y-98877381D02*
X151423809Y-98401190D01*
X151185714Y-98877381D02*
X151185714Y-97877381D01*
X151566667Y-97877381D01*
X151661905Y-97925000D01*
X151709524Y-97972619D01*
X151757143Y-98067857D01*
X151757143Y-98210714D01*
X151709524Y-98305952D01*
X151661905Y-98353571D01*
X151566667Y-98401190D01*
X151185714Y-98401190D01*
X152138095Y-97972619D02*
X152185714Y-97925000D01*
X152280952Y-97877381D01*
X152519048Y-97877381D01*
X152614286Y-97925000D01*
X152661905Y-97972619D01*
X152709524Y-98067857D01*
X152709524Y-98163095D01*
X152661905Y-98305952D01*
X152090476Y-98877381D01*
X152709524Y-98877381D01*
X153090476Y-97972619D02*
X153138095Y-97925000D01*
X153233333Y-97877381D01*
X153471429Y-97877381D01*
X153566667Y-97925000D01*
X153614286Y-97972619D01*
X153661905Y-98067857D01*
X153661905Y-98163095D01*
X153614286Y-98305952D01*
X153042857Y-98877381D01*
X153661905Y-98877381D01*
X144137143Y-121102381D02*
X143803809Y-120626190D01*
X143565714Y-121102381D02*
X143565714Y-120102381D01*
X143946667Y-120102381D01*
X144041905Y-120150000D01*
X144089524Y-120197619D01*
X144137143Y-120292857D01*
X144137143Y-120435714D01*
X144089524Y-120530952D01*
X144041905Y-120578571D01*
X143946667Y-120626190D01*
X143565714Y-120626190D01*
X144518095Y-120197619D02*
X144565714Y-120150000D01*
X144660952Y-120102381D01*
X144899048Y-120102381D01*
X144994286Y-120150000D01*
X145041905Y-120197619D01*
X145089524Y-120292857D01*
X145089524Y-120388095D01*
X145041905Y-120530952D01*
X144470476Y-121102381D01*
X145089524Y-121102381D01*
X145946667Y-120435714D02*
X145946667Y-121102381D01*
X145708571Y-120054762D02*
X145470476Y-120769048D01*
X146089524Y-120769048D01*
X152392143Y-93797381D02*
X152058809Y-93321190D01*
X151820714Y-93797381D02*
X151820714Y-92797381D01*
X152201667Y-92797381D01*
X152296905Y-92845000D01*
X152344524Y-92892619D01*
X152392143Y-92987857D01*
X152392143Y-93130714D01*
X152344524Y-93225952D01*
X152296905Y-93273571D01*
X152201667Y-93321190D01*
X151820714Y-93321190D01*
X152773095Y-92892619D02*
X152820714Y-92845000D01*
X152915952Y-92797381D01*
X153154048Y-92797381D01*
X153249286Y-92845000D01*
X153296905Y-92892619D01*
X153344524Y-92987857D01*
X153344524Y-93083095D01*
X153296905Y-93225952D01*
X152725476Y-93797381D01*
X153344524Y-93797381D01*
X154249286Y-92797381D02*
X153773095Y-92797381D01*
X153725476Y-93273571D01*
X153773095Y-93225952D01*
X153868333Y-93178333D01*
X154106429Y-93178333D01*
X154201667Y-93225952D01*
X154249286Y-93273571D01*
X154296905Y-93368810D01*
X154296905Y-93606905D01*
X154249286Y-93702143D01*
X154201667Y-93749762D01*
X154106429Y-93797381D01*
X153868333Y-93797381D01*
X153773095Y-93749762D01*
X153725476Y-93702143D01*
X143502143Y-83002381D02*
X143168809Y-82526190D01*
X142930714Y-83002381D02*
X142930714Y-82002381D01*
X143311667Y-82002381D01*
X143406905Y-82050000D01*
X143454524Y-82097619D01*
X143502143Y-82192857D01*
X143502143Y-82335714D01*
X143454524Y-82430952D01*
X143406905Y-82478571D01*
X143311667Y-82526190D01*
X142930714Y-82526190D01*
X143883095Y-82097619D02*
X143930714Y-82050000D01*
X144025952Y-82002381D01*
X144264048Y-82002381D01*
X144359286Y-82050000D01*
X144406905Y-82097619D01*
X144454524Y-82192857D01*
X144454524Y-82288095D01*
X144406905Y-82430952D01*
X143835476Y-83002381D01*
X144454524Y-83002381D01*
X145311667Y-82002381D02*
X145121190Y-82002381D01*
X145025952Y-82050000D01*
X144978333Y-82097619D01*
X144883095Y-82240476D01*
X144835476Y-82430952D01*
X144835476Y-82811905D01*
X144883095Y-82907143D01*
X144930714Y-82954762D01*
X145025952Y-83002381D01*
X145216429Y-83002381D01*
X145311667Y-82954762D01*
X145359286Y-82907143D01*
X145406905Y-82811905D01*
X145406905Y-82573810D01*
X145359286Y-82478571D01*
X145311667Y-82430952D01*
X145216429Y-82383333D01*
X145025952Y-82383333D01*
X144930714Y-82430952D01*
X144883095Y-82478571D01*
X144835476Y-82573810D01*
X157472143Y-95702381D02*
X157138809Y-95226190D01*
X156900714Y-95702381D02*
X156900714Y-94702381D01*
X157281667Y-94702381D01*
X157376905Y-94750000D01*
X157424524Y-94797619D01*
X157472143Y-94892857D01*
X157472143Y-95035714D01*
X157424524Y-95130952D01*
X157376905Y-95178571D01*
X157281667Y-95226190D01*
X156900714Y-95226190D01*
X157853095Y-94797619D02*
X157900714Y-94750000D01*
X157995952Y-94702381D01*
X158234048Y-94702381D01*
X158329286Y-94750000D01*
X158376905Y-94797619D01*
X158424524Y-94892857D01*
X158424524Y-94988095D01*
X158376905Y-95130952D01*
X157805476Y-95702381D01*
X158424524Y-95702381D01*
X158757857Y-94702381D02*
X159424524Y-94702381D01*
X158995952Y-95702381D01*
X143502143Y-77922381D02*
X143168809Y-77446190D01*
X142930714Y-77922381D02*
X142930714Y-76922381D01*
X143311667Y-76922381D01*
X143406905Y-76970000D01*
X143454524Y-77017619D01*
X143502143Y-77112857D01*
X143502143Y-77255714D01*
X143454524Y-77350952D01*
X143406905Y-77398571D01*
X143311667Y-77446190D01*
X142930714Y-77446190D01*
X143883095Y-77017619D02*
X143930714Y-76970000D01*
X144025952Y-76922381D01*
X144264048Y-76922381D01*
X144359286Y-76970000D01*
X144406905Y-77017619D01*
X144454524Y-77112857D01*
X144454524Y-77208095D01*
X144406905Y-77350952D01*
X143835476Y-77922381D01*
X144454524Y-77922381D01*
X145025952Y-77350952D02*
X144930714Y-77303333D01*
X144883095Y-77255714D01*
X144835476Y-77160476D01*
X144835476Y-77112857D01*
X144883095Y-77017619D01*
X144930714Y-76970000D01*
X145025952Y-76922381D01*
X145216429Y-76922381D01*
X145311667Y-76970000D01*
X145359286Y-77017619D01*
X145406905Y-77112857D01*
X145406905Y-77160476D01*
X145359286Y-77255714D01*
X145311667Y-77303333D01*
X145216429Y-77350952D01*
X145025952Y-77350952D01*
X144930714Y-77398571D01*
X144883095Y-77446190D01*
X144835476Y-77541429D01*
X144835476Y-77731905D01*
X144883095Y-77827143D01*
X144930714Y-77874762D01*
X145025952Y-77922381D01*
X145216429Y-77922381D01*
X145311667Y-77874762D01*
X145359286Y-77827143D01*
X145406905Y-77731905D01*
X145406905Y-77541429D01*
X145359286Y-77446190D01*
X145311667Y-77398571D01*
X145216429Y-77350952D01*
X171442143Y-107132381D02*
X171108809Y-106656190D01*
X170870714Y-107132381D02*
X170870714Y-106132381D01*
X171251667Y-106132381D01*
X171346905Y-106180000D01*
X171394524Y-106227619D01*
X171442143Y-106322857D01*
X171442143Y-106465714D01*
X171394524Y-106560952D01*
X171346905Y-106608571D01*
X171251667Y-106656190D01*
X170870714Y-106656190D01*
X171823095Y-106227619D02*
X171870714Y-106180000D01*
X171965952Y-106132381D01*
X172204048Y-106132381D01*
X172299286Y-106180000D01*
X172346905Y-106227619D01*
X172394524Y-106322857D01*
X172394524Y-106418095D01*
X172346905Y-106560952D01*
X171775476Y-107132381D01*
X172394524Y-107132381D01*
X172870714Y-107132381D02*
X173061190Y-107132381D01*
X173156429Y-107084762D01*
X173204048Y-107037143D01*
X173299286Y-106894286D01*
X173346905Y-106703810D01*
X173346905Y-106322857D01*
X173299286Y-106227619D01*
X173251667Y-106180000D01*
X173156429Y-106132381D01*
X172965952Y-106132381D01*
X172870714Y-106180000D01*
X172823095Y-106227619D01*
X172775476Y-106322857D01*
X172775476Y-106560952D01*
X172823095Y-106656190D01*
X172870714Y-106703810D01*
X172965952Y-106751429D01*
X173156429Y-106751429D01*
X173251667Y-106703810D01*
X173299286Y-106656190D01*
X173346905Y-106560952D01*
X169537143Y-95702381D02*
X169203809Y-95226190D01*
X168965714Y-95702381D02*
X168965714Y-94702381D01*
X169346667Y-94702381D01*
X169441905Y-94750000D01*
X169489524Y-94797619D01*
X169537143Y-94892857D01*
X169537143Y-95035714D01*
X169489524Y-95130952D01*
X169441905Y-95178571D01*
X169346667Y-95226190D01*
X168965714Y-95226190D01*
X169870476Y-94702381D02*
X170489524Y-94702381D01*
X170156190Y-95083333D01*
X170299048Y-95083333D01*
X170394286Y-95130952D01*
X170441905Y-95178571D01*
X170489524Y-95273810D01*
X170489524Y-95511905D01*
X170441905Y-95607143D01*
X170394286Y-95654762D01*
X170299048Y-95702381D01*
X170013333Y-95702381D01*
X169918095Y-95654762D01*
X169870476Y-95607143D01*
X171108571Y-94702381D02*
X171203810Y-94702381D01*
X171299048Y-94750000D01*
X171346667Y-94797619D01*
X171394286Y-94892857D01*
X171441905Y-95083333D01*
X171441905Y-95321429D01*
X171394286Y-95511905D01*
X171346667Y-95607143D01*
X171299048Y-95654762D01*
X171203810Y-95702381D01*
X171108571Y-95702381D01*
X171013333Y-95654762D01*
X170965714Y-95607143D01*
X170918095Y-95511905D01*
X170870476Y-95321429D01*
X170870476Y-95083333D01*
X170918095Y-94892857D01*
X170965714Y-94797619D01*
X171013333Y-94750000D01*
X171108571Y-94702381D01*
X169537143Y-89352381D02*
X169203809Y-88876190D01*
X168965714Y-89352381D02*
X168965714Y-88352381D01*
X169346667Y-88352381D01*
X169441905Y-88400000D01*
X169489524Y-88447619D01*
X169537143Y-88542857D01*
X169537143Y-88685714D01*
X169489524Y-88780952D01*
X169441905Y-88828571D01*
X169346667Y-88876190D01*
X168965714Y-88876190D01*
X169870476Y-88352381D02*
X170489524Y-88352381D01*
X170156190Y-88733333D01*
X170299048Y-88733333D01*
X170394286Y-88780952D01*
X170441905Y-88828571D01*
X170489524Y-88923810D01*
X170489524Y-89161905D01*
X170441905Y-89257143D01*
X170394286Y-89304762D01*
X170299048Y-89352381D01*
X170013333Y-89352381D01*
X169918095Y-89304762D01*
X169870476Y-89257143D01*
X171441905Y-89352381D02*
X170870476Y-89352381D01*
X171156190Y-89352381D02*
X171156190Y-88352381D01*
X171060952Y-88495238D01*
X170965714Y-88590476D01*
X170870476Y-88638095D01*
X80518095Y-104862381D02*
X80518095Y-105671905D01*
X80565714Y-105767143D01*
X80613333Y-105814762D01*
X80708571Y-105862381D01*
X80899048Y-105862381D01*
X80994286Y-105814762D01*
X81041905Y-105767143D01*
X81089524Y-105671905D01*
X81089524Y-104862381D01*
X82089524Y-105862381D02*
X81518095Y-105862381D01*
X81803809Y-105862381D02*
X81803809Y-104862381D01*
X81708571Y-105005238D01*
X81613333Y-105100476D01*
X81518095Y-105148095D01*
X88773095Y-75652381D02*
X88773095Y-76461905D01*
X88820714Y-76557143D01*
X88868333Y-76604762D01*
X88963571Y-76652381D01*
X89154048Y-76652381D01*
X89249286Y-76604762D01*
X89296905Y-76557143D01*
X89344524Y-76461905D01*
X89344524Y-75652381D01*
X89773095Y-75747619D02*
X89820714Y-75700000D01*
X89915952Y-75652381D01*
X90154048Y-75652381D01*
X90249286Y-75700000D01*
X90296905Y-75747619D01*
X90344524Y-75842857D01*
X90344524Y-75938095D01*
X90296905Y-76080952D01*
X89725476Y-76652381D01*
X90344524Y-76652381D01*
X105283095Y-104862381D02*
X105283095Y-105671905D01*
X105330714Y-105767143D01*
X105378333Y-105814762D01*
X105473571Y-105862381D01*
X105664048Y-105862381D01*
X105759286Y-105814762D01*
X105806905Y-105767143D01*
X105854524Y-105671905D01*
X105854524Y-104862381D01*
X106235476Y-104862381D02*
X106854524Y-104862381D01*
X106521190Y-105243333D01*
X106664048Y-105243333D01*
X106759286Y-105290952D01*
X106806905Y-105338571D01*
X106854524Y-105433810D01*
X106854524Y-105671905D01*
X106806905Y-105767143D01*
X106759286Y-105814762D01*
X106664048Y-105862381D01*
X106378333Y-105862381D01*
X106283095Y-105814762D01*
X106235476Y-105767143D01*
X113538095Y-75652381D02*
X113538095Y-76461905D01*
X113585714Y-76557143D01*
X113633333Y-76604762D01*
X113728571Y-76652381D01*
X113919048Y-76652381D01*
X114014286Y-76604762D01*
X114061905Y-76557143D01*
X114109524Y-76461905D01*
X114109524Y-75652381D01*
X115014286Y-75985714D02*
X115014286Y-76652381D01*
X114776190Y-75604762D02*
X114538095Y-76319048D01*
X115157143Y-76319048D01*
X130048095Y-104862381D02*
X130048095Y-105671905D01*
X130095714Y-105767143D01*
X130143333Y-105814762D01*
X130238571Y-105862381D01*
X130429048Y-105862381D01*
X130524286Y-105814762D01*
X130571905Y-105767143D01*
X130619524Y-105671905D01*
X130619524Y-104862381D01*
X131571905Y-104862381D02*
X131095714Y-104862381D01*
X131048095Y-105338571D01*
X131095714Y-105290952D01*
X131190952Y-105243333D01*
X131429048Y-105243333D01*
X131524286Y-105290952D01*
X131571905Y-105338571D01*
X131619524Y-105433810D01*
X131619524Y-105671905D01*
X131571905Y-105767143D01*
X131524286Y-105814762D01*
X131429048Y-105862381D01*
X131190952Y-105862381D01*
X131095714Y-105814762D01*
X131048095Y-105767143D01*
X138303095Y-75652381D02*
X138303095Y-76461905D01*
X138350714Y-76557143D01*
X138398333Y-76604762D01*
X138493571Y-76652381D01*
X138684048Y-76652381D01*
X138779286Y-76604762D01*
X138826905Y-76557143D01*
X138874524Y-76461905D01*
X138874524Y-75652381D01*
X139779286Y-75652381D02*
X139588809Y-75652381D01*
X139493571Y-75700000D01*
X139445952Y-75747619D01*
X139350714Y-75890476D01*
X139303095Y-76080952D01*
X139303095Y-76461905D01*
X139350714Y-76557143D01*
X139398333Y-76604762D01*
X139493571Y-76652381D01*
X139684048Y-76652381D01*
X139779286Y-76604762D01*
X139826905Y-76557143D01*
X139874524Y-76461905D01*
X139874524Y-76223810D01*
X139826905Y-76128571D01*
X139779286Y-76080952D01*
X139684048Y-76033333D01*
X139493571Y-76033333D01*
X139398333Y-76080952D01*
X139350714Y-76128571D01*
X139303095Y-76223810D01*
X154813095Y-104862381D02*
X154813095Y-105671905D01*
X154860714Y-105767143D01*
X154908333Y-105814762D01*
X155003571Y-105862381D01*
X155194048Y-105862381D01*
X155289286Y-105814762D01*
X155336905Y-105767143D01*
X155384524Y-105671905D01*
X155384524Y-104862381D01*
X155765476Y-104862381D02*
X156432143Y-104862381D01*
X156003571Y-105862381D01*
X163068095Y-75652381D02*
X163068095Y-76461905D01*
X163115714Y-76557143D01*
X163163333Y-76604762D01*
X163258571Y-76652381D01*
X163449048Y-76652381D01*
X163544286Y-76604762D01*
X163591905Y-76557143D01*
X163639524Y-76461905D01*
X163639524Y-75652381D01*
X164258571Y-76080952D02*
X164163333Y-76033333D01*
X164115714Y-75985714D01*
X164068095Y-75890476D01*
X164068095Y-75842857D01*
X164115714Y-75747619D01*
X164163333Y-75700000D01*
X164258571Y-75652381D01*
X164449048Y-75652381D01*
X164544286Y-75700000D01*
X164591905Y-75747619D01*
X164639524Y-75842857D01*
X164639524Y-75890476D01*
X164591905Y-75985714D01*
X164544286Y-76033333D01*
X164449048Y-76080952D01*
X164258571Y-76080952D01*
X164163333Y-76128571D01*
X164115714Y-76176190D01*
X164068095Y-76271429D01*
X164068095Y-76461905D01*
X164115714Y-76557143D01*
X164163333Y-76604762D01*
X164258571Y-76652381D01*
X164449048Y-76652381D01*
X164544286Y-76604762D01*
X164591905Y-76557143D01*
X164639524Y-76461905D01*
X164639524Y-76271429D01*
X164591905Y-76176190D01*
X164544286Y-76128571D01*
X164449048Y-76080952D01*
X195484762Y-117387619D02*
X195389524Y-117340000D01*
X195294286Y-117244762D01*
X195151429Y-117101905D01*
X195056190Y-117054286D01*
X194960952Y-117054286D01*
X195008571Y-117292381D02*
X194913333Y-117244762D01*
X194818095Y-117149524D01*
X194770476Y-116959048D01*
X194770476Y-116625714D01*
X194818095Y-116435238D01*
X194913333Y-116340000D01*
X195008571Y-116292381D01*
X195199048Y-116292381D01*
X195294286Y-116340000D01*
X195389524Y-116435238D01*
X195437143Y-116625714D01*
X195437143Y-116959048D01*
X195389524Y-117149524D01*
X195294286Y-117244762D01*
X195199048Y-117292381D01*
X195008571Y-117292381D01*
X196389524Y-117292381D02*
X195818095Y-117292381D01*
X196103809Y-117292381D02*
X196103809Y-116292381D01*
X196008571Y-116435238D01*
X195913333Y-116530476D01*
X195818095Y-116578095D01*
X69683334Y-93162381D02*
X69350000Y-92686190D01*
X69111905Y-93162381D02*
X69111905Y-92162381D01*
X69492858Y-92162381D01*
X69588096Y-92210000D01*
X69635715Y-92257619D01*
X69683334Y-92352857D01*
X69683334Y-92495714D01*
X69635715Y-92590952D01*
X69588096Y-92638571D01*
X69492858Y-92686190D01*
X69111905Y-92686190D01*
X70064286Y-92257619D02*
X70111905Y-92210000D01*
X70207143Y-92162381D01*
X70445239Y-92162381D01*
X70540477Y-92210000D01*
X70588096Y-92257619D01*
X70635715Y-92352857D01*
X70635715Y-92448095D01*
X70588096Y-92590952D01*
X70016667Y-93162381D01*
X70635715Y-93162381D01*
X94448334Y-93162381D02*
X94115000Y-92686190D01*
X93876905Y-93162381D02*
X93876905Y-92162381D01*
X94257858Y-92162381D01*
X94353096Y-92210000D01*
X94400715Y-92257619D01*
X94448334Y-92352857D01*
X94448334Y-92495714D01*
X94400715Y-92590952D01*
X94353096Y-92638571D01*
X94257858Y-92686190D01*
X93876905Y-92686190D01*
X94924524Y-93162381D02*
X95115000Y-93162381D01*
X95210239Y-93114762D01*
X95257858Y-93067143D01*
X95353096Y-92924286D01*
X95400715Y-92733810D01*
X95400715Y-92352857D01*
X95353096Y-92257619D01*
X95305477Y-92210000D01*
X95210239Y-92162381D01*
X95019762Y-92162381D01*
X94924524Y-92210000D01*
X94876905Y-92257619D01*
X94829286Y-92352857D01*
X94829286Y-92590952D01*
X94876905Y-92686190D01*
X94924524Y-92733810D01*
X95019762Y-92781429D01*
X95210239Y-92781429D01*
X95305477Y-92733810D01*
X95353096Y-92686190D01*
X95400715Y-92590952D01*
X118737143Y-93162381D02*
X118403809Y-92686190D01*
X118165714Y-93162381D02*
X118165714Y-92162381D01*
X118546667Y-92162381D01*
X118641905Y-92210000D01*
X118689524Y-92257619D01*
X118737143Y-92352857D01*
X118737143Y-92495714D01*
X118689524Y-92590952D01*
X118641905Y-92638571D01*
X118546667Y-92686190D01*
X118165714Y-92686190D01*
X119689524Y-93162381D02*
X119118095Y-93162381D01*
X119403809Y-93162381D02*
X119403809Y-92162381D01*
X119308571Y-92305238D01*
X119213333Y-92400476D01*
X119118095Y-92448095D01*
X120546667Y-92162381D02*
X120356190Y-92162381D01*
X120260952Y-92210000D01*
X120213333Y-92257619D01*
X120118095Y-92400476D01*
X120070476Y-92590952D01*
X120070476Y-92971905D01*
X120118095Y-93067143D01*
X120165714Y-93114762D01*
X120260952Y-93162381D01*
X120451429Y-93162381D01*
X120546667Y-93114762D01*
X120594286Y-93067143D01*
X120641905Y-92971905D01*
X120641905Y-92733810D01*
X120594286Y-92638571D01*
X120546667Y-92590952D01*
X120451429Y-92543333D01*
X120260952Y-92543333D01*
X120165714Y-92590952D01*
X120118095Y-92638571D01*
X120070476Y-92733810D01*
X146042143Y-93162381D02*
X145708809Y-92686190D01*
X145470714Y-93162381D02*
X145470714Y-92162381D01*
X145851667Y-92162381D01*
X145946905Y-92210000D01*
X145994524Y-92257619D01*
X146042143Y-92352857D01*
X146042143Y-92495714D01*
X145994524Y-92590952D01*
X145946905Y-92638571D01*
X145851667Y-92686190D01*
X145470714Y-92686190D01*
X146423095Y-92257619D02*
X146470714Y-92210000D01*
X146565952Y-92162381D01*
X146804048Y-92162381D01*
X146899286Y-92210000D01*
X146946905Y-92257619D01*
X146994524Y-92352857D01*
X146994524Y-92448095D01*
X146946905Y-92590952D01*
X146375476Y-93162381D01*
X146994524Y-93162381D01*
X147327857Y-92162381D02*
X147946905Y-92162381D01*
X147613571Y-92543333D01*
X147756429Y-92543333D01*
X147851667Y-92590952D01*
X147899286Y-92638571D01*
X147946905Y-92733810D01*
X147946905Y-92971905D01*
X147899286Y-93067143D01*
X147851667Y-93114762D01*
X147756429Y-93162381D01*
X147470714Y-93162381D01*
X147375476Y-93114762D01*
X147327857Y-93067143D01*
X65413095Y-112482381D02*
X65984524Y-112482381D01*
X65698809Y-113482381D02*
X65698809Y-112482381D01*
X66317857Y-113482381D02*
X66317857Y-112482381D01*
X66698810Y-112482381D01*
X66794048Y-112530000D01*
X66841667Y-112577619D01*
X66889286Y-112672857D01*
X66889286Y-112815714D01*
X66841667Y-112910952D01*
X66794048Y-112958571D01*
X66698810Y-113006190D01*
X66317857Y-113006190D01*
X67841667Y-113482381D02*
X67270238Y-113482381D01*
X67555952Y-113482381D02*
X67555952Y-112482381D01*
X67460714Y-112625238D01*
X67365476Y-112720476D01*
X67270238Y-112768095D01*
X90178095Y-112482381D02*
X90749524Y-112482381D01*
X90463809Y-113482381D02*
X90463809Y-112482381D01*
X91082857Y-113482381D02*
X91082857Y-112482381D01*
X91463810Y-112482381D01*
X91559048Y-112530000D01*
X91606667Y-112577619D01*
X91654286Y-112672857D01*
X91654286Y-112815714D01*
X91606667Y-112910952D01*
X91559048Y-112958571D01*
X91463810Y-113006190D01*
X91082857Y-113006190D01*
X92035238Y-112577619D02*
X92082857Y-112530000D01*
X92178095Y-112482381D01*
X92416191Y-112482381D01*
X92511429Y-112530000D01*
X92559048Y-112577619D01*
X92606667Y-112672857D01*
X92606667Y-112768095D01*
X92559048Y-112910952D01*
X91987619Y-113482381D01*
X92606667Y-113482381D01*
X114943095Y-112482381D02*
X115514524Y-112482381D01*
X115228809Y-113482381D02*
X115228809Y-112482381D01*
X115847857Y-113482381D02*
X115847857Y-112482381D01*
X116228810Y-112482381D01*
X116324048Y-112530000D01*
X116371667Y-112577619D01*
X116419286Y-112672857D01*
X116419286Y-112815714D01*
X116371667Y-112910952D01*
X116324048Y-112958571D01*
X116228810Y-113006190D01*
X115847857Y-113006190D01*
X116752619Y-112482381D02*
X117371667Y-112482381D01*
X117038333Y-112863333D01*
X117181191Y-112863333D01*
X117276429Y-112910952D01*
X117324048Y-112958571D01*
X117371667Y-113053810D01*
X117371667Y-113291905D01*
X117324048Y-113387143D01*
X117276429Y-113434762D01*
X117181191Y-113482381D01*
X116895476Y-113482381D01*
X116800238Y-113434762D01*
X116752619Y-113387143D01*
X139708095Y-112482381D02*
X140279524Y-112482381D01*
X139993809Y-113482381D02*
X139993809Y-112482381D01*
X140612857Y-113482381D02*
X140612857Y-112482381D01*
X140993810Y-112482381D01*
X141089048Y-112530000D01*
X141136667Y-112577619D01*
X141184286Y-112672857D01*
X141184286Y-112815714D01*
X141136667Y-112910952D01*
X141089048Y-112958571D01*
X140993810Y-113006190D01*
X140612857Y-113006190D01*
X142041429Y-112815714D02*
X142041429Y-113482381D01*
X141803333Y-112434762D02*
X141565238Y-113149048D01*
X142184286Y-113149048D01*
X91448095Y-103592381D02*
X92019524Y-103592381D01*
X91733809Y-104592381D02*
X91733809Y-103592381D01*
X92352857Y-104592381D02*
X92352857Y-103592381D01*
X92733810Y-103592381D01*
X92829048Y-103640000D01*
X92876667Y-103687619D01*
X92924286Y-103782857D01*
X92924286Y-103925714D01*
X92876667Y-104020952D01*
X92829048Y-104068571D01*
X92733810Y-104116190D01*
X92352857Y-104116190D01*
X93781429Y-103592381D02*
X93590952Y-103592381D01*
X93495714Y-103640000D01*
X93448095Y-103687619D01*
X93352857Y-103830476D01*
X93305238Y-104020952D01*
X93305238Y-104401905D01*
X93352857Y-104497143D01*
X93400476Y-104544762D01*
X93495714Y-104592381D01*
X93686191Y-104592381D01*
X93781429Y-104544762D01*
X93829048Y-104497143D01*
X93876667Y-104401905D01*
X93876667Y-104163810D01*
X93829048Y-104068571D01*
X93781429Y-104020952D01*
X93686191Y-103973333D01*
X93495714Y-103973333D01*
X93400476Y-104020952D01*
X93352857Y-104068571D01*
X93305238Y-104163810D01*
X164473095Y-103592381D02*
X165044524Y-103592381D01*
X164758809Y-104592381D02*
X164758809Y-103592381D01*
X165377857Y-104592381D02*
X165377857Y-103592381D01*
X165758810Y-103592381D01*
X165854048Y-103640000D01*
X165901667Y-103687619D01*
X165949286Y-103782857D01*
X165949286Y-103925714D01*
X165901667Y-104020952D01*
X165854048Y-104068571D01*
X165758810Y-104116190D01*
X165377857Y-104116190D01*
X166425476Y-104592381D02*
X166615952Y-104592381D01*
X166711191Y-104544762D01*
X166758810Y-104497143D01*
X166854048Y-104354286D01*
X166901667Y-104163810D01*
X166901667Y-103782857D01*
X166854048Y-103687619D01*
X166806429Y-103640000D01*
X166711191Y-103592381D01*
X166520714Y-103592381D01*
X166425476Y-103640000D01*
X166377857Y-103687619D01*
X166330238Y-103782857D01*
X166330238Y-104020952D01*
X166377857Y-104116190D01*
X166425476Y-104163810D01*
X166520714Y-104211429D01*
X166711191Y-104211429D01*
X166806429Y-104163810D01*
X166854048Y-104116190D01*
X166901667Y-104020952D01*
X170188095Y-81367381D02*
X170759524Y-81367381D01*
X170473809Y-82367381D02*
X170473809Y-81367381D01*
X171092857Y-82367381D02*
X171092857Y-81367381D01*
X171473810Y-81367381D01*
X171569048Y-81415000D01*
X171616667Y-81462619D01*
X171664286Y-81557857D01*
X171664286Y-81700714D01*
X171616667Y-81795952D01*
X171569048Y-81843571D01*
X171473810Y-81891190D01*
X171092857Y-81891190D01*
X172569048Y-81367381D02*
X172092857Y-81367381D01*
X172045238Y-81843571D01*
X172092857Y-81795952D01*
X172188095Y-81748333D01*
X172426191Y-81748333D01*
X172521429Y-81795952D01*
X172569048Y-81843571D01*
X172616667Y-81938810D01*
X172616667Y-82176905D01*
X172569048Y-82272143D01*
X172521429Y-82319762D01*
X172426191Y-82367381D01*
X172188095Y-82367381D01*
X172092857Y-82319762D01*
X172045238Y-82272143D01*
X116213095Y-103592381D02*
X116784524Y-103592381D01*
X116498809Y-104592381D02*
X116498809Y-103592381D01*
X117117857Y-104592381D02*
X117117857Y-103592381D01*
X117498810Y-103592381D01*
X117594048Y-103640000D01*
X117641667Y-103687619D01*
X117689286Y-103782857D01*
X117689286Y-103925714D01*
X117641667Y-104020952D01*
X117594048Y-104068571D01*
X117498810Y-104116190D01*
X117117857Y-104116190D01*
X118022619Y-103592381D02*
X118689286Y-103592381D01*
X118260714Y-104592381D01*
X140978095Y-103592381D02*
X141549524Y-103592381D01*
X141263809Y-104592381D02*
X141263809Y-103592381D01*
X141882857Y-104592381D02*
X141882857Y-103592381D01*
X142263810Y-103592381D01*
X142359048Y-103640000D01*
X142406667Y-103687619D01*
X142454286Y-103782857D01*
X142454286Y-103925714D01*
X142406667Y-104020952D01*
X142359048Y-104068571D01*
X142263810Y-104116190D01*
X141882857Y-104116190D01*
X143025714Y-104020952D02*
X142930476Y-103973333D01*
X142882857Y-103925714D01*
X142835238Y-103830476D01*
X142835238Y-103782857D01*
X142882857Y-103687619D01*
X142930476Y-103640000D01*
X143025714Y-103592381D01*
X143216191Y-103592381D01*
X143311429Y-103640000D01*
X143359048Y-103687619D01*
X143406667Y-103782857D01*
X143406667Y-103830476D01*
X143359048Y-103925714D01*
X143311429Y-103973333D01*
X143216191Y-104020952D01*
X143025714Y-104020952D01*
X142930476Y-104068571D01*
X142882857Y-104116190D01*
X142835238Y-104211429D01*
X142835238Y-104401905D01*
X142882857Y-104497143D01*
X142930476Y-104544762D01*
X143025714Y-104592381D01*
X143216191Y-104592381D01*
X143311429Y-104544762D01*
X143359048Y-104497143D01*
X143406667Y-104401905D01*
X143406667Y-104211429D01*
X143359048Y-104116190D01*
X143311429Y-104068571D01*
X143216191Y-104020952D01*
X165266905Y-77557381D02*
X165838334Y-77557381D01*
X165552619Y-78557381D02*
X165552619Y-77557381D01*
X166171667Y-78557381D02*
X166171667Y-77557381D01*
X166552620Y-77557381D01*
X166647858Y-77605000D01*
X166695477Y-77652619D01*
X166743096Y-77747857D01*
X166743096Y-77890714D01*
X166695477Y-77985952D01*
X166647858Y-78033571D01*
X166552620Y-78081190D01*
X166171667Y-78081190D01*
X167695477Y-78557381D02*
X167124048Y-78557381D01*
X167409762Y-78557381D02*
X167409762Y-77557381D01*
X167314524Y-77700238D01*
X167219286Y-77795476D01*
X167124048Y-77843095D01*
X168314524Y-77557381D02*
X168409763Y-77557381D01*
X168505001Y-77605000D01*
X168552620Y-77652619D01*
X168600239Y-77747857D01*
X168647858Y-77938333D01*
X168647858Y-78176429D01*
X168600239Y-78366905D01*
X168552620Y-78462143D01*
X168505001Y-78509762D01*
X168409763Y-78557381D01*
X168314524Y-78557381D01*
X168219286Y-78509762D01*
X168171667Y-78462143D01*
X168124048Y-78366905D01*
X168076429Y-78176429D01*
X168076429Y-77938333D01*
X168124048Y-77747857D01*
X168171667Y-77652619D01*
X168219286Y-77605000D01*
X168314524Y-77557381D01*
X177966905Y-100417381D02*
X178538334Y-100417381D01*
X178252619Y-101417381D02*
X178252619Y-100417381D01*
X178871667Y-101417381D02*
X178871667Y-100417381D01*
X179252620Y-100417381D01*
X179347858Y-100465000D01*
X179395477Y-100512619D01*
X179443096Y-100607857D01*
X179443096Y-100750714D01*
X179395477Y-100845952D01*
X179347858Y-100893571D01*
X179252620Y-100941190D01*
X178871667Y-100941190D01*
X180395477Y-101417381D02*
X179824048Y-101417381D01*
X180109762Y-101417381D02*
X180109762Y-100417381D01*
X180014524Y-100560238D01*
X179919286Y-100655476D01*
X179824048Y-100703095D01*
X181347858Y-101417381D02*
X180776429Y-101417381D01*
X181062143Y-101417381D02*
X181062143Y-100417381D01*
X180966905Y-100560238D01*
X180871667Y-100655476D01*
X180776429Y-100703095D01*
M02*
