M48
INCH,TZ
T1C0.016
T2C0.028
T3C0.031
T4C0.032
T5C0.032
T6C0.039
T7C0.039
T8C0.040
T9C0.050
T10C0.051
T11C0.170
%
G90
G05
T1
X64750Y-35000
X71500Y-41500
X75000Y-33250
T2
X65250Y-45500
X65250Y-46484
T3
X31500Y-43000
X31500Y-44000
X31500Y-45000
X31500Y-46000
X31750Y-31500
X31750Y-32500
X33500Y-35000
X34000Y-34500
X34500Y-35000
X34500Y-43000
X34500Y-44000
X34500Y-45000
X34500Y-46000
X34750Y-31500
X34750Y-32500
X41250Y-43000
X41250Y-44000
X41250Y-45000
X41250Y-46000
X41500Y-31500
X41500Y-32500
X43250Y-35000
X43750Y-34500
X44250Y-35000
X44250Y-43000
X44250Y-44000
X44250Y-45000
X44250Y-46000
X44500Y-31500
X44500Y-32500
X51000Y-43000
X51000Y-44000
X51000Y-45000
X51000Y-46000
X51250Y-31500
X51250Y-32500
X53000Y-35000
X53500Y-34500
X54000Y-35000
X54000Y-43000
X54000Y-44000
X54000Y-45000
X54000Y-46000
X54250Y-31500
X54250Y-32500
X60750Y-43000
X60750Y-44000
X60750Y-45000
X60750Y-46000
X61000Y-31500
X61000Y-32500
X62750Y-35000
X63250Y-34500
X63750Y-35000
X63750Y-43000
X63750Y-44000
X63750Y-45000
X63750Y-46000
X64000Y-31500
X64000Y-32500
X66000Y-40250
X67969Y-40250
X68000Y-44500
X68000Y-46469
X70000Y-45000
X70000Y-46000
X70016Y-41500
X70500Y-45500
X71000Y-41500
T4
X72500Y-36500
X72500Y-40000
X72500Y-43500
X75000Y-36500
X77500Y-36500
X77500Y-40000
X77500Y-43500
T5
X27750Y-45500
X28750Y-46500
X29750Y-45500
X37500Y-45500
X38500Y-46500
X39500Y-45500
X47250Y-45500
X48250Y-46500
X49250Y-45500
X57000Y-45500
X58000Y-46500
X59000Y-45500
T6
X26250Y-45500
X35250Y-41000
X36000Y-45500
X45000Y-41000
X45750Y-45500
X54750Y-41000
X55500Y-45500
X64250Y-41000
X65750Y-31500
X67500Y-31500
X69500Y-39750
T7
X26500Y-31500
X26500Y-33500
X26500Y-35500
X27751Y-40000
X29500Y-37500
X29500Y-41500
X30500Y-31500
X30500Y-33500
X30500Y-35500
X32000Y-36250
X32000Y-40250
X34000Y-37000
X34000Y-41000
X36250Y-31500
X36250Y-33500
X36250Y-35500
X37501Y-40000
X39250Y-37500
X39250Y-41500
X40250Y-31500
X40250Y-33500
X40250Y-35500
X41750Y-36250
X41750Y-40250
X43750Y-37000
X43750Y-41000
X46000Y-31500
X46000Y-33500
X46000Y-35500
X47251Y-40000
X49000Y-37500
X49000Y-41500
X50000Y-31500
X50000Y-33500
X50000Y-35500
X51500Y-36250
X51500Y-40250
X53500Y-37000
X53500Y-41000
X55750Y-31500
X55750Y-33500
X55750Y-35500
X57001Y-40000
X58750Y-37500
X58750Y-41500
X59750Y-31500
X59750Y-33500
X59750Y-35500
X61250Y-36250
X61250Y-40250
X63250Y-37000
X63250Y-41000
X65750Y-36000
X66000Y-38500
X66500Y-41500
X66500Y-45500
X69750Y-36000
X70000Y-38500
X74000Y-45000
X75000Y-45000
X76000Y-45000
T8
X75000Y-31000
X75000Y-32000
X76000Y-31000
X76000Y-32000
X77000Y-31000
X77000Y-32000
T9
X27751Y-44000
X37501Y-44000
X47251Y-44000
X57001Y-44000
T10
X69531Y-32000
X71500Y-32000
T11
X25500Y-29250
X25500Y-48750
X56500Y-38000
X80000Y-29250
X80000Y-48750
T0
M30
